<svg width="28" height="26" viewBox="0 0 28 26" fill="none" xmlns="http://www.w3.org/2000/svg">
<path d="M3.38802 2.39665H5.19522V0.667261C5.19522 -0.22242 6.55029 -0.22242 6.55029 0.667261V2.39665H10.3155V0.667261C10.3155 -0.22242 11.6706 -0.22242 11.6706 0.667261V2.39665H15.4355V0.667261C15.4355 -0.22242 16.7906 -0.22242 16.7906 0.667261V2.39665H20.5558V0.667261C20.5558 -0.22242 21.9109 -0.22242 21.9109 0.667261V2.39665H23.7181C25.5832 2.39665 27.1061 3.91734 27.1061 5.77901V22.6173C27.1061 24.4793 25.5832 26 23.7181 26H3.38802C1.52291 26 0 24.4793 0 22.6173V5.77901C0 3.91734 1.52323 2.39665 3.38802 2.39665ZM5.00678 18.069H6.28693V16.7909H5.00678V18.069ZM6.96447 19.4218H4.32924C3.95497 19.4218 3.6517 19.119 3.6517 18.7454V16.1145C3.6517 15.7409 3.95497 15.4381 4.32924 15.4381H6.96447C7.33874 15.4381 7.64201 15.7409 7.64201 16.1145V18.7454C7.64201 19.119 7.33874 19.4218 6.96447 19.4218ZM20.8191 18.069H22.0993V16.7909H20.8191V18.069ZM22.7768 19.4218H20.1416C19.7673 19.4218 19.4641 19.119 19.4641 18.7454V16.1145C19.4641 15.7409 19.7673 15.4381 20.1416 15.4381H22.7768C23.1511 15.4381 23.4544 15.7409 23.4544 16.1145V18.7454C23.4544 19.119 23.1511 19.4218 22.7768 19.4218ZM15.548 18.069H16.8285V16.7909H15.548V18.069ZM17.5061 19.4218H14.8708C14.4966 19.4218 14.1933 19.119 14.1933 18.7454V16.1145C14.1933 15.7409 14.4966 15.4381 14.8708 15.4381H17.5061C17.88 15.4381 18.1836 15.7409 18.1836 16.1145V18.7454C18.1836 19.119 17.88 19.4218 17.5061 19.4218ZM10.2776 18.069H11.5577V16.7909H10.2776V18.069ZM12.2353 19.4218H9.60003C9.22576 19.4218 8.92249 19.119 8.92249 18.7454V16.1145C8.92249 15.7409 9.22576 15.4381 9.60003 15.4381H12.2353C12.6095 15.4381 12.9128 15.7409 12.9128 16.1145V18.7454C12.9128 19.119 12.6095 19.4218 12.2353 19.4218ZM1.35475 12.3559H25.7513V5.77901C25.7513 4.6643 24.835 3.74947 23.7181 3.74947C16.9414 3.74947 10.1647 3.74947 3.38802 3.74947C2.27144 3.74947 1.35475 4.6643 1.35475 5.77901V12.3559ZM25.7513 13.7087H1.35475V22.6173C1.35475 23.7324 2.27111 24.6472 3.38802 24.6472H23.7181C24.835 24.6472 25.7513 23.7324 25.7513 22.6173V13.7087ZM4.32924 6.64289H6.96447C7.33874 6.64289 7.64201 6.94566 7.64201 7.3193V9.95013C7.64201 10.3238 7.33874 10.6265 6.96447 10.6265H4.32924C3.95497 10.6265 3.6517 10.3238 3.6517 9.95013V7.3193C3.6517 6.94566 3.95497 6.64289 4.32924 6.64289ZM6.28693 7.9957H5.00678V9.27372H6.28693V7.9957ZM20.1416 6.64289H22.7768C23.1511 6.64289 23.4544 6.94566 23.4544 7.3193V9.95013C23.4544 10.3238 23.1511 10.6265 22.7768 10.6265H20.1416C19.7673 10.6265 19.4641 10.3238 19.4641 9.95013V7.3193C19.4641 6.94566 19.7673 6.64289 20.1416 6.64289ZM22.0993 7.9957H20.8191V9.27372H22.0993V7.9957ZM14.8708 6.64289H17.5061C17.88 6.64289 18.1836 6.94566 18.1836 7.3193V9.95013C18.1836 10.3238 17.88 10.6265 17.5061 10.6265H14.8708C14.4966 10.6265 14.1933 10.3238 14.1933 9.95013V7.3193C14.1933 6.94566 14.4966 6.64289 14.8708 6.64289ZM16.8285 7.9957H15.548V9.27372H16.8285V7.9957ZM9.60003 6.64289H12.2353C12.6095 6.64289 12.9128 6.94566 12.9128 7.3193V9.95013C12.9128 10.3238 12.6095 10.6265 12.2353 10.6265H9.60003C9.22576 10.6265 8.92249 10.3238 8.92249 9.95013V7.3193C8.92249 6.94566 9.22576 6.64289 9.60003 6.64289ZM11.5577 7.9957H10.2776V9.27372H11.5577V7.9957Z" fill="#FF9900"/>
</svg>
