<svg width="78" height="70" viewBox="0 0 78 70" fill="none" xmlns="http://www.w3.org/2000/svg">
<path d="M1.48382 2.20511C1.35362 1.58381 1.82777 1 2.46256 1H22.2243C22.6748 1 23.0697 1.30123 23.1888 1.7357L24.1532 1.47141L23.1888 1.73571L36.7132 51.088C36.8122 51.4492 36.7011 51.8354 36.4253 52.0887L20.4806 66.7364C20.2961 66.9059 20.0547 67 19.8041 67H15.8743C15.4011 67 14.9926 66.6683 14.8956 66.2051L1.48382 2.20511Z" stroke="#FF9900" stroke-width="2"/>
<path d="M39.4962 2.20953C39.3628 1.58702 39.8373 1 40.474 1H61.4834C61.9318 1 62.3253 1.29844 62.4463 1.73017L76.7017 52.6024C76.8044 52.9689 76.6902 53.3618 76.4071 53.6162L59.5685 68.7439C59.385 68.9088 59.1469 69 58.9002 69H54.6168C54.1453 69 53.7378 68.6706 53.639 68.2095L39.4962 2.20953Z" stroke="#FF9900" stroke-width="2"/>
</svg>
