<svg width="15" height="27" viewBox="0 0 15 27" fill="none" xmlns="http://www.w3.org/2000/svg">
<path d="M5.00685 26C4.65068 26 4.29452 25.7331 4.29452 25.2883V14.2562C4.29452 13.9004 4.0274 13.5445 3.58219 13.5445H1.71233C1.35616 13.5445 1 13.2776 1 12.8327V10.1637C1 9.80783 1.26712 9.45196 1.71233 9.45196H3.49315C3.84932 9.45196 4.20548 9.18505 4.20548 8.74021V4.73665C4.11644 2.69039 6.34247 1.08897 8.12329 1C9.4589 1 12.0411 1 13.2877 1C13.6438 1 14 1.35587 14 1.71174V4.29181C14 4.64769 13.7329 5.00356 13.2877 5.00356H11.2397C10.0822 5.00356 9.19178 5.89324 9.19178 7.04982V8.82918C9.19178 9.18505 9.4589 9.54093 9.90411 9.54093H12.5753C12.9315 9.54093 13.2877 9.80783 13.2877 10.2527V13.0107C13.2877 13.3665 13.0205 13.7224 12.5753 13.7224H10.0822C9.72603 13.7224 9.36986 13.9893 9.36986 14.4342V25.4662" stroke="white" stroke-width="2" stroke-miterlimit="10" stroke-linecap="round" stroke-linejoin="round"/>
</svg>
