<svg width="58" height="78" viewBox="0 0 58 78" fill="none" xmlns="http://www.w3.org/2000/svg">
<path d="M46.8764 14.9091C46.4026 14.9091 45.9741 14.6116 45.8124 14.1629C45.6717 13.83 45.7008 13.4473 45.8949 13.1369C46.1018 12.8057 46.4657 12.603 46.857 12.603H46.878C47.5038 12.603 48.0099 13.1064 48.0099 13.7287V13.7818C48.0099 14.3447 47.5911 14.8223 47.03 14.8979C46.9766 14.9059 46.9265 14.9091 46.8764 14.9091Z" fill="#FF9900"/>
<path d="M43.314 56.2738H38.3238C35.7349 56.2738 33.6295 54.18 33.6295 51.6054V47.183C33.6295 46.5606 34.1357 46.0573 34.7615 46.0573C35.3873 46.0573 35.8934 46.5606 35.8934 47.183V51.6054C35.8934 52.9385 36.9833 54.0224 38.3238 54.0224H43.314C44.6545 54.0224 45.7444 52.9385 45.7444 51.6054V17.5737C45.1817 17.8471 44.5527 17.9983 43.8929 17.9983C42.7303 17.9983 41.6113 17.5142 40.8189 16.6716C40.0266 17.5158 38.9076 17.9983 37.7449 17.9983C37.0835 17.9983 36.4529 17.8471 35.8918 17.5737V42.7107C35.8918 43.3331 35.3857 43.8364 34.7599 43.8364C34.1341 43.8364 33.6279 43.3331 33.6279 42.7107V14.544C33.6279 13.9747 34.0564 13.4939 34.6256 13.4263C35.1932 13.3572 35.7252 13.7238 35.8594 14.2786C36.0713 15.1438 36.8458 15.7469 37.7449 15.7469C38.2947 15.7469 38.8008 15.5266 39.1728 15.1245C39.5932 14.671 40.1915 14.4089 40.8157 14.4089H40.8173C41.4415 14.4089 42.0414 14.6694 42.4634 15.1245C42.8354 15.5266 43.3431 15.7469 43.8913 15.7469C44.7871 15.7469 45.5617 15.1438 45.7768 14.2819C45.9142 13.7287 46.4446 13.3668 47.0122 13.4344C47.5798 13.5035 48.0083 13.9827 48.0083 14.552V51.6054C48.0083 54.18 45.9029 56.2738 43.314 56.2738Z" fill="#FF9900"/>
<path d="M40.8189 48.3088C40.1931 48.3088 39.687 47.8054 39.687 47.1831V24.394C39.687 23.7717 40.1931 23.2683 40.8189 23.2683C41.4447 23.2683 41.9509 23.7717 41.9509 24.394V47.1831C41.9509 47.8054 41.4447 48.3088 40.8189 48.3088Z" fill="#FF9900"/>
<path d="M40.8189 21.7292C40.5214 21.7292 40.2303 21.6102 40.0185 21.3996C39.9668 21.3481 39.9199 21.2902 39.8778 21.2291C39.8374 21.168 39.8018 21.1037 39.7743 21.0345C39.7452 20.967 39.7242 20.8962 39.7097 20.8239C39.6951 20.7515 39.687 20.6775 39.687 20.6052C39.687 20.5312 39.6951 20.4572 39.7097 20.3848C39.7242 20.3125 39.7452 20.2417 39.7743 20.1742C39.8018 20.1066 39.8374 20.0407 39.8778 19.9796C39.9199 19.9185 39.9668 19.8606 40.0185 19.8091C40.2821 19.547 40.6734 19.428 41.0405 19.5004C41.1132 19.5148 41.1844 19.5373 41.2523 19.5647C41.3202 19.5936 41.3865 19.6274 41.448 19.6692C41.5094 19.7094 41.5676 19.756 41.6194 19.8091C41.6711 19.8606 41.7196 19.9185 41.7601 19.9796C41.8005 20.0407 41.8361 20.1066 41.8652 20.1742C41.8927 20.2417 41.9153 20.3125 41.9298 20.3848C41.9444 20.4572 41.9509 20.5312 41.9509 20.6052C41.9509 20.9011 41.8312 21.1905 41.6194 21.3996C41.5676 21.4526 41.5094 21.4993 41.448 21.5395C41.3865 21.5813 41.3202 21.6151 41.2523 21.644C41.1844 21.6714 41.1132 21.6939 41.0405 21.7083C40.9677 21.7228 40.8933 21.7292 40.8189 21.7292Z" fill="#FF9900"/>
<path d="M43.8927 17.9984C42.7301 17.9984 41.6111 17.5143 40.8187 16.6717C40.0264 17.5159 38.9074 17.9984 37.7447 17.9984C35.7978 17.9984 34.1177 16.6877 33.6585 14.8094C33.6326 14.7033 33.6116 14.5988 33.5938 14.4926C33.534 14.1356 33.5663 13.769 33.6844 13.4248C33.7005 13.3766 33.7183 13.3299 33.7393 13.2833C33.7911 13.1563 33.8574 13.0324 33.935 12.915L39.7968 0.643259C39.9843 0.250871 40.3821 0 40.8187 0C41.2553 0 41.6531 0.250871 41.8407 0.643259L47.7025 12.9199C47.7769 13.0324 47.8399 13.1514 47.8917 13.2737C47.9159 13.3267 47.937 13.3814 47.9531 13.4361C48.0663 13.7722 48.0987 14.1308 48.0437 14.4765C48.0243 14.5955 48.0016 14.7017 47.9774 14.8062C47.5117 16.6926 45.8332 17.9984 43.8927 17.9984ZM40.8187 14.409C41.4429 14.409 42.0428 14.6695 42.4649 15.1246C42.8368 15.5267 43.3446 15.747 43.8927 15.747C44.7886 15.747 45.5631 15.1439 45.7782 14.282C45.7863 14.245 45.7976 14.1983 45.8057 14.1485V14.1469C45.7653 14.0906 45.7281 14.0311 45.6974 13.9668L40.8187 3.75342L35.9401 13.9668C35.9094 14.0295 35.8738 14.089 35.8334 14.1453C35.8415 14.1887 35.8496 14.2337 35.8609 14.2787C36.0711 15.1407 36.8473 15.7438 37.7464 15.7438C38.2962 15.7438 38.8023 15.5234 39.1742 15.1214C39.5946 14.6679 40.1929 14.4058 40.8171 14.4058C40.8171 14.409 40.8187 14.409 40.8187 14.409Z" fill="#FF9900"/>
<path d="M43.8281 8.55536H37.8111C37.1853 8.55536 36.6792 8.05201 36.6792 7.42966C36.6792 6.80731 37.1853 6.30396 37.8111 6.30396H43.8281C44.4539 6.30396 44.9601 6.80731 44.9601 7.42966C44.9601 8.05201 44.4523 8.55536 43.8281 8.55536Z" fill="#FF9900"/>
<path d="M43.5499 56.2739H38.0876C35.6297 56.2739 33.6294 54.2847 33.6294 51.8403V47.1831C33.6294 46.5607 34.1355 46.0574 34.7613 46.0574H46.8778C47.5036 46.0574 48.0097 46.5607 48.0097 47.1831V51.8403C48.0081 54.2847 46.0095 56.2739 43.5499 56.2739ZM35.8916 48.3088V51.8403C35.8916 53.0432 36.8764 54.0225 38.086 54.0225H43.5499C44.7595 54.0225 45.7443 53.0432 45.7443 51.8403V48.3088H35.8916Z" fill="#FF9900"/>
<path d="M46.8766 63.8837C46.8038 63.8837 46.7294 63.8756 46.6566 63.8611C46.5839 63.8467 46.5127 63.8258 46.4448 63.7968C46.3753 63.7695 46.3106 63.7341 46.2491 63.6939C46.1861 63.6521 46.1295 63.6055 46.0761 63.554C46.0244 63.5025 45.9775 63.4446 45.9354 63.3819C45.895 63.3224 45.8611 63.2565 45.832 63.1889C45.8045 63.1198 45.7818 63.049 45.7673 62.9783C45.7527 62.9059 45.7446 62.8319 45.7446 62.758C45.7446 62.684 45.7527 62.61 45.7673 62.5376C45.7818 62.4669 45.8045 62.3945 45.832 62.327C45.8611 62.2594 45.895 62.1935 45.9354 62.1324C45.9775 62.0713 46.0244 62.0134 46.0761 61.9619C46.1295 61.9105 46.1861 61.8622 46.2491 61.822C46.3106 61.7818 46.3753 61.7464 46.4448 61.7191C46.5127 61.6901 46.5839 61.6692 46.6566 61.6548C46.8022 61.6258 46.9526 61.6258 47.0981 61.6548C47.1709 61.6692 47.242 61.6901 47.3099 61.7191C47.3778 61.7464 47.4441 61.7818 47.5056 61.822C47.567 61.8622 47.6252 61.9105 47.677 61.9619C47.7304 62.0134 47.7772 62.0713 47.8177 62.1324C47.8597 62.1935 47.8937 62.2594 47.9228 62.327C47.9503 62.3945 47.9729 62.4669 47.9875 62.5376C48.002 62.61 48.0085 62.684 48.0085 62.758C48.0085 62.8319 48.002 62.9059 47.9875 62.9783C47.9729 63.049 47.9503 63.1198 47.9228 63.1889C47.8937 63.2565 47.8597 63.3224 47.8177 63.3819C47.7772 63.4446 47.7304 63.5025 47.677 63.554C47.6252 63.6055 47.567 63.6521 47.5056 63.6939C47.4441 63.7341 47.3778 63.7695 47.3099 63.7968C47.242 63.8258 47.1709 63.8467 47.0981 63.8611C47.0253 63.8756 46.9509 63.8837 46.8766 63.8837Z" fill="#FF9900"/>
<path d="M1.6041 77.9999H1.13193C0.506134 77.9999 0 77.4965 0 76.8742V1.93772C0 1.31536 0.506134 0.812012 1.13193 0.812012H21.3207C21.9465 0.812012 22.4526 1.31536 22.4526 1.93772V55.1481C22.4526 55.7705 21.9465 56.2738 21.3207 56.2738C20.6949 56.2738 20.1887 55.7705 20.1887 55.1481V3.06342H2.26386V75.0152L20.6593 61.8444C21.1671 61.481 21.8737 61.5952 22.2392 62.1001C22.6046 62.6051 22.4898 63.3079 21.982 63.6713L2.26547 77.7876C2.07304 77.9259 1.84181 77.9999 1.6041 77.9999Z" fill="#FF9900"/>
<path d="M8.48138 10.9177H1.13193C0.506134 10.9177 0 10.4143 0 9.79196C0 9.16961 0.506134 8.66626 1.13193 8.66626H8.48138C9.10717 8.66626 9.6133 9.16961 9.6133 9.79196C9.6133 10.4143 9.10555 10.9177 8.48138 10.9177Z" fill="#FF9900"/>
<path d="M8.48138 21.8403H1.13193C0.506134 21.8403 0 21.3369 0 20.7146C0 20.0922 0.506134 19.5889 1.13193 19.5889H8.48138C9.10717 19.5889 9.6133 20.0922 9.6133 20.7146C9.6133 21.3369 9.10555 21.8403 8.48138 21.8403Z" fill="#FF9900"/>
<path d="M8.48154 32.7613C8.40715 32.7613 8.33277 32.7532 8.26 32.7388C8.18724 32.7243 8.11609 32.7034 8.04817 32.6744C7.98026 32.6471 7.91396 32.6117 7.85251 32.5715C7.79106 32.5313 7.73285 32.4831 7.6811 32.4316C7.46927 32.2225 7.34961 31.9315 7.34961 31.6356C7.34961 31.5632 7.35608 31.4892 7.37063 31.4152C7.38518 31.3445 7.40782 31.2737 7.43531 31.2046C7.46442 31.137 7.49838 31.0727 7.54042 31.0116C7.58085 30.9489 7.62774 30.891 7.6811 30.8395C7.73285 30.7881 7.79106 30.7414 7.85251 30.6996C7.91396 30.6594 7.98026 30.624 8.04817 30.5967C8.11609 30.5678 8.18724 30.5468 8.26 30.5324C8.62707 30.4584 9.01839 30.5774 9.28197 30.8395C9.33372 30.891 9.38061 30.9489 9.42265 31.0116C9.46308 31.0727 9.49866 31.137 9.52615 31.2046C9.55525 31.2737 9.57627 31.3445 9.59083 31.4152C9.60538 31.4892 9.61347 31.5632 9.61347 31.6356C9.61347 31.9315 9.49219 32.2225 9.28197 32.4316C9.22861 32.4831 9.17201 32.5313 9.10895 32.5715C9.0475 32.6117 8.98282 32.6471 8.91329 32.6744C8.84537 32.7034 8.77422 32.7243 8.70307 32.7388C8.62869 32.7532 8.5543 32.7613 8.48154 32.7613Z" fill="#FF9900"/>
<path d="M4.80584 32.7612H1.13193C0.506134 32.7612 0 32.2578 0 31.6355C0 31.0131 0.506134 30.5098 1.13193 30.5098H4.80584C5.43164 30.5098 5.93777 31.0131 5.93777 31.6355C5.93777 32.2578 5.43164 32.7612 4.80584 32.7612Z" fill="#FF9900"/>
<path d="M8.48138 43.6838H1.13193C0.506134 43.6838 0 43.1804 0 42.5581C0 41.9357 0.506134 41.4324 1.13193 41.4324H8.48138C9.10717 41.4324 9.6133 41.9357 9.6133 42.5581C9.6133 43.1804 9.10555 43.6838 8.48138 43.6838Z" fill="#FF9900"/>
<path d="M8.48138 54.6047H1.13193C0.506134 54.6047 0 54.1013 0 53.479C0 52.8566 0.506134 52.3533 1.13193 52.3533H8.48138C9.10717 52.3533 9.6133 52.8566 9.6133 53.479C9.6133 54.1013 9.10555 54.6047 8.48138 54.6047Z" fill="#FF9900"/>
<path d="M8.48138 65.5273H1.13193C0.506134 65.5273 0 65.0239 0 64.4016C0 63.7792 0.506134 63.2759 1.13193 63.2759H8.48138C9.10717 63.2759 9.6133 63.7792 9.6133 64.4016C9.6133 65.0239 9.10555 65.5273 8.48138 65.5273Z" fill="#FF9900"/>
<path d="M56.868 78.0001H1.60408C1.1125 78.0001 0.677518 77.6849 0.527133 77.2201C0.376748 76.7553 0.544921 76.2472 0.942712 75.9609L20.6593 61.8446C20.8517 61.7063 21.0829 61.6323 21.3207 61.6323H43.0779C43.7037 61.6323 44.2099 62.1357 44.2099 62.758C44.2099 63.3804 43.7037 63.8837 43.0779 63.8837H21.6845L5.11306 75.7486H55.7361V63.8837H50.6198C49.994 63.8837 49.4879 63.3804 49.4879 62.758C49.4879 62.1357 49.994 61.6323 50.6198 61.6323H56.868C57.4938 61.6323 58 62.1357 58 62.758V76.8743C58 77.4967 57.4938 78.0001 56.868 78.0001Z" fill="#FF9900"/>
</svg>
