<svg width="54" height="78" viewBox="0 0 54 78" fill="none" xmlns="http://www.w3.org/2000/svg">
<path d="M12.8304 51.2031H10.833V53.5286H12.8304V51.2031Z" fill="#FF9900"/>
<path d="M12.8304 55.0544H10.833V72.5686H12.8304V55.0544Z" fill="#FF9900"/>
<path d="M23.663 34.5367L11.8315 0L0 34.5367L10.8328 42.7734V44.6368H6.51971H4.82075V46.6342H6.51971V72.6884C6.51971 75.6173 8.90262 78 11.8315 78C14.7604 78 17.1433 75.6173 17.1433 72.6884V46.6342H18.8422V44.6368H17.1433H12.8302V42.7734L23.663 34.5367ZM11.8315 76.0028C10.004 76.0028 8.51712 74.5159 8.51712 72.6886V49.4179H15.1459V72.6886C15.1459 74.5159 13.6591 76.0028 11.8315 76.0028ZM15.1459 47.4205H8.51712V46.6342H15.1459V47.4205ZM2.35694 33.8196L11.8315 6.16334L21.306 33.8196L12.8302 40.2641V32.3669H10.8328V40.2641L2.35694 33.8196Z" fill="#FF9900"/>
<path d="M12.8304 28.2817H10.833V30.6072H12.8304V28.2817Z" fill="#FF9900"/>
<path d="M40.8656 28.8093H38.8682V31.1874H40.8656V28.8093Z" fill="#FF9900"/>
<path d="M40.8656 9.33838H38.8682V27.2486H40.8656V9.33838Z" fill="#FF9900"/>
<path d="M26.562 75.1979C26.562 75.7502 27.0097 76.1979 27.562 76.1979H52.1715C52.7238 76.1979 53.1715 75.7502 53.1715 75.1979V20.8452C53.1715 20.2929 52.7238 19.8452 52.1715 19.8452H45.2761V9.21596C45.2761 6.23316 42.8494 3.80664 39.8668 3.80664C36.884 3.80664 34.4573 6.23316 34.4573 9.21596V19.8452H27.562C27.0097 19.8452 26.562 20.2929 26.562 20.8452V75.1979ZM39.4882 37.8798H40.2453V48.1763H39.4882V37.8798ZM37.4908 35.8824H36.4547V35.033H43.2787V35.8824H42.2425H37.4908ZM39.8668 5.80405C41.7481 5.80405 43.2787 7.33457 43.2787 9.21596V33.0356H36.4547V9.21596C36.4547 7.33457 37.9854 5.80405 39.8668 5.80405ZM28.5593 22.8426C28.5593 22.2903 29.007 21.8426 29.5593 21.8426H34.4573V35.8824H32.6976V37.8798H34.4573H37.4908V49.1737C37.4908 49.726 37.9385 50.1737 38.4908 50.1737H41.2427C41.795 50.1737 42.2427 49.726 42.2427 49.1737V37.8798H45.2762H47.0361V35.8824H45.2762V21.8426H50.1743C50.7265 21.8426 51.1743 22.2903 51.1743 22.8426V73.2005C51.1743 73.7528 50.7265 74.2005 50.1743 74.2005H29.5593C29.007 74.2005 28.5593 73.7528 28.5593 73.2005V22.8426Z" fill="#FF9900"/>
</svg>
