<svg width="78" height="78" viewBox="0 0 78 78" fill="none" xmlns="http://www.w3.org/2000/svg">
<path d="M75.4839 75.4839V56.6129C75.4839 56.2792 75.3513 55.9592 75.1154 55.7233C74.8795 55.4874 74.5595 55.3548 74.2258 55.3548H72.9677V6.29032C72.9677 5.95666 72.8352 5.63667 72.5993 5.40074C72.3633 5.1648 72.0433 5.03226 71.7097 5.03226H67.9355V1.25806C67.9355 0.924405 67.8029 0.604411 67.567 0.368479C67.3311 0.132546 67.0111 0 66.6774 0H51.5806C51.247 0 50.927 0.132546 50.6911 0.368479C50.4551 0.604411 50.3226 0.924405 50.3226 1.25806V5.03226H46.5484C46.2147 5.03226 45.8947 5.1648 45.6588 5.40074C45.4229 5.63667 45.2903 5.95666 45.2903 6.29032V27.6774H36.4839C36.1502 27.6774 35.8302 27.81 35.5943 28.0459C35.3584 28.2818 35.2258 28.6018 35.2258 28.9355V51.5806H32.7097V27.6774C32.7097 27.3438 32.5771 27.0238 32.3412 26.7878C32.1053 26.5519 31.7853 26.4194 31.4516 26.4194H27.6019C27.3205 24.2033 26.3099 22.1438 24.7291 20.5653C23.1484 18.9869 21.0875 17.9792 18.871 17.701V12.5806H16.3548V17.701C14.1383 17.9792 12.0774 18.9869 10.4967 20.5653C8.91593 22.1438 7.90526 24.2033 7.62387 26.4194H3.77419C3.44053 26.4194 3.12054 26.5519 2.88461 26.7878C2.64867 27.0238 2.51613 27.3438 2.51613 27.6774V75.4839H0V78H78V75.4839H75.4839ZM55.3548 12.5806V27.6774H52.8387V12.5806H55.3548ZM57.871 28.9355V12.5806H60.3871V55.3548H57.871V28.9355ZM62.9032 55.3548V12.5806H65.4194V55.3548H62.9032ZM72.9677 57.871V75.4839H51.5806V57.871H72.9677ZM67.9355 55.3548V12.5806H70.4516V55.3548H67.9355ZM51.5806 7.54839C51.9143 7.54839 52.2343 7.41584 52.4702 7.17991C52.7062 6.94398 52.8387 6.62398 52.8387 6.29032V2.51613H65.4194V6.29032C65.4194 6.62398 65.5519 6.94398 65.7878 7.17991C66.0238 7.41584 66.3438 7.54839 66.6774 7.54839H70.4516V10.0645H47.8064V7.54839H51.5806ZM47.8064 12.5806H50.3226V27.6774H47.8064V12.5806ZM37.7419 30.1935H55.3548V55.3548H50.3226C49.9889 55.3548 49.6689 55.4874 49.433 55.7233C49.1971 55.9592 49.0645 56.2792 49.0645 56.6129V75.4839H44.0323V52.8387C44.0323 52.5051 43.8997 52.1851 43.6638 51.9491C43.4278 51.7132 43.1079 51.5806 42.7742 51.5806H37.7419V30.1935ZM41.5161 75.4839H21.3871V54.0968H41.5161V75.4839ZM17.6129 20.129C19.6149 20.129 21.5348 20.9243 22.9504 22.3399C24.366 23.7555 25.1613 25.6755 25.1613 27.6774C25.1613 28.0111 25.2938 28.3311 25.5298 28.567C25.7657 28.8029 26.0857 28.9355 26.4194 28.9355H30.1935V44.0323H28.3065C27.806 44.0323 27.326 43.8334 26.9721 43.4795C26.6182 43.1256 26.4194 42.6456 26.4194 42.1452C26.4194 40.9774 25.9554 39.8574 25.1297 39.0316C24.3039 38.2058 23.1839 37.7419 22.0161 37.7419H18.2419C17.7414 37.7419 17.2615 37.5431 16.9076 37.1892C16.5537 36.8353 16.3548 36.3553 16.3548 35.8548C16.3548 34.687 15.8909 33.5671 15.0652 32.7413C14.2394 31.9155 13.1194 31.4516 11.9516 31.4516C11.4511 31.4516 10.9711 31.2528 10.6172 30.8989C10.2633 30.545 10.0645 30.065 10.0645 29.5645V27.6774C10.0645 25.6755 10.8598 23.7555 12.2754 22.3399C13.691 20.9243 15.6109 20.129 17.6129 20.129ZM5.03226 28.9355H7.54839V29.5645C7.54839 30.7323 8.0123 31.8523 8.83806 32.6781C9.66383 33.5038 10.7838 33.9677 11.9516 33.9677C12.4521 33.9677 12.9321 34.1666 13.286 34.5205C13.6399 34.8744 13.8387 35.3544 13.8387 35.8548C13.8387 37.0226 14.3026 38.1426 15.1284 38.9684C15.9542 39.7942 17.0741 40.2581 18.2419 40.2581H22.0161C22.405 40.261 22.7837 40.3832 23.1009 40.6082C23.4181 40.8331 23.6587 41.1501 23.79 41.5161H20.129C19.7954 41.5161 19.4754 41.6487 19.2394 41.8846C19.0035 42.1205 18.871 42.4405 18.871 42.7742V47.8064C18.871 48.1401 19.0035 48.4601 19.2394 48.696C19.4754 48.932 19.7954 49.0645 20.129 49.0645H25.1613C25.4949 49.0645 25.8149 48.932 26.0509 48.696C26.2868 48.4601 26.4194 48.1401 26.4194 47.8064V46.1081C27.0072 46.3952 27.6523 46.5457 28.3065 46.5484H30.1935V51.5806H20.129C19.7954 51.5806 19.4754 51.7132 19.2394 51.9491C19.0035 52.1851 18.871 52.5051 18.871 52.8387V75.4839H5.03226V28.9355ZM23.9032 44.0323V46.5484H21.3871V44.0323H23.9032Z" fill="#FF9900"/>
<path d="M15.097 41.5161H10.0647C9.73105 41.5161 9.41105 41.6487 9.17512 41.8846C8.93919 42.1205 8.80664 42.4405 8.80664 42.7742V47.8064C8.80664 48.1401 8.93919 48.4601 9.17512 48.696C9.41105 48.932 9.73105 49.0645 10.0647 49.0645H15.097C15.4306 49.0645 15.7506 48.932 15.9865 48.696C16.2225 48.4601 16.355 48.1401 16.355 47.8064V42.7742C16.355 42.4405 16.2225 42.1205 15.9865 41.8846C15.7506 41.6487 15.4306 41.5161 15.097 41.5161ZM13.8389 46.5484H11.3228V44.0322H13.8389V46.5484Z" fill="#FF9900"/>
<path d="M15.097 51.5806H10.0647C9.73105 51.5806 9.41105 51.7131 9.17512 51.949C8.93919 52.185 8.80664 52.505 8.80664 52.8386V57.8709C8.80664 58.2045 8.93919 58.5245 9.17512 58.7605C9.41105 58.9964 9.73105 59.129 10.0647 59.129H15.097C15.4306 59.129 15.7506 58.9964 15.9865 58.7605C16.2225 58.5245 16.355 58.2045 16.355 57.8709V52.8386C16.355 52.505 16.2225 52.185 15.9865 51.949C15.7506 51.7131 15.4306 51.5806 15.097 51.5806ZM13.8389 56.6128H11.3228V54.0967H13.8389V56.6128Z" fill="#FF9900"/>
<path d="M15.097 61.6453H10.0647C9.73105 61.6453 9.41105 61.7778 9.17512 62.0137C8.93919 62.2497 8.80664 62.5697 8.80664 62.9033V67.9356C8.80664 68.2692 8.93919 68.5892 9.17512 68.8252C9.41105 69.0611 9.73105 69.1937 10.0647 69.1937H15.097C15.4306 69.1937 15.7506 69.0611 15.9865 68.8252C16.2225 68.5892 16.355 68.2692 16.355 67.9356V62.9033C16.355 62.5697 16.2225 62.2497 15.9865 62.0137C15.7506 61.7778 15.4306 61.6453 15.097 61.6453ZM13.8389 66.6775H11.3228V64.1614H13.8389V66.6775Z" fill="#FF9900"/>
<path d="M27.6773 56.6128H25.1611V61.6451H27.6773V56.6128Z" fill="#FF9900"/>
<path d="M32.7095 56.6128H30.1934V61.6451H32.7095V56.6128Z" fill="#FF9900"/>
<path d="M37.7417 56.6128H35.2256V61.6451H37.7417V56.6128Z" fill="#FF9900"/>
<path d="M27.6773 64.1614H25.1611V69.1936H27.6773V64.1614Z" fill="#FF9900"/>
<path d="M32.7095 64.1614H30.1934V69.1936H32.7095V64.1614Z" fill="#FF9900"/>
<path d="M37.7417 64.1614H35.2256V69.1936H37.7417V64.1614Z" fill="#FF9900"/>
<path d="M70.4515 60.3872H54.0967V62.9033H70.4515V60.3872Z" fill="#FF9900"/>
<path d="M70.4515 65.4194H54.0967V67.9356H70.4515V65.4194Z" fill="#FF9900"/>
<path d="M70.4515 70.4517H54.0967V72.9678H70.4515V70.4517Z" fill="#FF9900"/>
<path d="M52.8385 32.7097H40.2578V35.2258H52.8385V32.7097Z" fill="#FF9900"/>
<path d="M52.8385 37.7419H40.2578V40.2581H52.8385V37.7419Z" fill="#FF9900"/>
<path d="M52.8385 42.7742H40.2578V45.2903H52.8385V42.7742Z" fill="#FF9900"/>
<path d="M52.8385 47.8064H40.2578V50.3225H52.8385V47.8064Z" fill="#FF9900"/>
<path d="M32.7097 21.387C33.4562 21.387 34.1859 21.1657 34.8066 20.7509C35.4272 20.3362 35.911 19.7468 36.1966 19.0571C36.4823 18.3675 36.557 17.6086 36.4114 16.8765C36.2658 16.1444 35.9063 15.4719 35.3785 14.9441C34.8507 14.4162 34.1782 14.0568 33.4461 13.9111C32.7139 13.7655 31.9551 13.8403 31.2654 14.1259C30.5758 14.4116 29.9863 14.8953 29.5716 15.516C29.1569 16.1367 28.9355 16.8664 28.9355 17.6128C28.9355 18.6138 29.3332 19.5738 30.041 20.2816C30.7488 20.9894 31.7088 21.387 32.7097 21.387ZM32.7097 16.3548C32.9586 16.3548 33.2018 16.4285 33.4087 16.5668C33.6156 16.705 33.7768 16.9015 33.872 17.1314C33.9673 17.3613 33.9922 17.6142 33.9436 17.8583C33.8951 18.1023 33.7753 18.3265 33.5993 18.5024C33.4234 18.6783 33.1992 18.7982 32.9552 18.8467C32.7111 18.8953 32.4582 18.8703 32.2283 18.7751C31.9984 18.6799 31.8019 18.5187 31.6637 18.3118C31.5255 18.1049 31.4517 17.8616 31.4517 17.6128C31.4517 17.2792 31.5842 16.9592 31.8202 16.7232C32.0561 16.4873 32.3761 16.3548 32.7097 16.3548Z" fill="#FF9900"/>
<path d="M7.54861 11.3226C8.29507 11.3226 9.02477 11.1012 9.64544 10.6865C10.2661 10.2718 10.7498 9.68233 11.0355 8.99269C11.3212 8.30304 11.3959 7.54418 11.2503 6.81206C11.1047 6.07993 10.7452 5.40744 10.2174 4.87961C9.68954 4.35178 9.01704 3.99232 8.28492 3.84669C7.55279 3.70106 6.79393 3.77581 6.10429 4.06146C5.41464 4.34712 4.82519 4.83087 4.41048 5.45154C3.99577 6.0722 3.77441 6.8019 3.77441 7.54836C3.77441 8.54934 4.17205 9.50932 4.87985 10.2171C5.58765 10.9249 6.54763 11.3226 7.54861 11.3226ZM7.54861 6.2903C7.79743 6.2903 8.04066 6.36408 8.24755 6.50232C8.45444 6.64056 8.61569 6.83704 8.71091 7.06692C8.80613 7.29681 8.83104 7.54976 8.7825 7.7938C8.73396 8.03784 8.61414 8.26201 8.43819 8.43795C8.26225 8.61389 8.03808 8.73371 7.79404 8.78226C7.55 8.8308 7.29705 8.80588 7.06717 8.71067C6.83729 8.61545 6.6408 8.4542 6.50257 8.24731C6.36433 8.04042 6.29054 7.79719 6.29054 7.54836C6.29054 7.21471 6.42309 6.89471 6.65902 6.65878C6.89495 6.42285 7.21495 6.2903 7.54861 6.2903Z" fill="#FF9900"/>
</svg>
