<svg width="265" height="192" viewBox="0 0 265 192" fill="none" xmlns="http://www.w3.org/2000/svg">
<path d="M25.4747 188.897C25.2019 189.125 24.6904 189.431 23.9401 189.818C23.2126 190.204 22.3145 190.546 21.246 190.841C20.1774 191.137 18.9952 191.273 17.6992 191.25C15.7213 191.205 13.9479 190.852 12.3792 190.193C10.8332 189.511 9.51452 188.59 8.42323 187.431C7.35467 186.271 6.53619 184.941 5.96781 183.441C5.39943 181.94 5.11523 180.337 5.11523 178.632C5.11523 176.722 5.39943 174.972 5.96781 173.38C6.55893 171.789 7.38877 170.413 8.45733 169.254C9.54863 168.094 10.8445 167.196 12.3451 166.56C13.8456 165.923 15.5053 165.605 17.3241 165.605C19.0065 165.605 20.4957 165.832 21.7916 166.287C23.0875 166.742 24.1447 167.23 24.9632 167.753L23.0193 172.425C22.4509 171.993 21.6893 171.55 20.7344 171.095C19.8023 170.618 18.7223 170.379 17.4946 170.379C16.5397 170.379 15.619 170.584 14.7323 170.993C13.8683 171.38 13.0953 171.937 12.4133 172.664C11.754 173.392 11.231 174.244 10.8445 175.222C10.458 176.177 10.2648 177.223 10.2648 178.359C10.2648 179.564 10.4353 180.667 10.7763 181.667C11.1401 182.668 11.6516 183.532 12.311 184.259C12.9703 184.964 13.7547 185.51 14.6641 185.896C15.5962 186.283 16.6421 186.476 17.8016 186.476C19.1429 186.476 20.2911 186.26 21.246 185.828C22.2008 185.396 22.9284 184.941 23.4286 184.464L25.4747 188.897Z" fill="#01273C"/>
<path d="M52.9026 192.001L33.8731 174.813L35.3396 175.631L35.4419 190.977H30.4287V164.889H30.6334L49.2536 182.008L48.1623 181.531L48.06 165.878H53.039V192.001H52.9026Z" fill="#01273C"/>
<path d="M89.0087 189.136C88.5994 189.409 88.0424 189.716 87.3376 190.057C86.6328 190.398 85.803 190.682 84.8481 190.909C83.9159 191.137 82.8929 191.25 81.7788 191.25C79.869 191.228 78.1412 190.887 76.5952 190.227C75.0719 189.568 73.776 188.67 72.7074 187.533C71.6389 186.396 70.809 185.089 70.2179 183.611C69.6495 182.111 69.3653 180.519 69.3653 178.837C69.3653 176.995 69.6609 175.301 70.252 173.755C70.8659 172.187 71.7184 170.834 72.8097 169.697C73.901 168.538 75.1856 167.64 76.6634 167.003C78.1639 166.366 79.8008 166.048 81.5742 166.048C83.052 166.048 84.3934 166.253 85.5984 166.662C86.8033 167.049 87.8378 167.515 88.7017 168.06L87.3717 171.13C86.6897 170.675 85.8598 170.243 84.8822 169.834C83.9273 169.424 82.8588 169.22 81.6765 169.22C80.4715 169.22 79.3348 169.458 78.2662 169.936C77.1977 170.413 76.2541 171.084 75.4357 171.948C74.6172 172.812 73.9692 173.824 73.4918 174.983C73.0371 176.12 72.8097 177.348 72.8097 178.666C72.8097 180.008 73.0144 181.258 73.4236 182.418C73.8556 183.554 74.458 184.543 75.231 185.385C76.0268 186.226 76.9817 186.885 78.0957 187.363C79.2097 187.84 80.4602 188.079 81.847 188.079C83.0975 188.079 84.2115 187.885 85.1891 187.499C86.1667 187.112 86.9738 186.681 87.6104 186.203L89.0087 189.136Z" fill="#01273C"/>
<path d="M92.5668 183.782C92.5668 182.372 92.8965 181.099 93.5558 179.962C94.2379 178.825 95.17 177.927 96.3523 177.268C97.5345 176.609 98.8759 176.279 100.376 176.279C101.922 176.279 103.275 176.609 104.435 177.268C105.594 177.927 106.492 178.825 107.129 179.962C107.765 181.099 108.084 182.372 108.084 183.782C108.084 185.191 107.765 186.476 107.129 187.635C106.492 188.772 105.583 189.67 104.401 190.33C103.241 190.989 101.888 191.319 100.342 191.319C98.8418 191.319 97.5004 191.012 96.3182 190.398C95.1587 189.761 94.2379 188.886 93.5558 187.772C92.8965 186.635 92.5668 185.305 92.5668 183.782ZM95.7384 183.816C95.7384 184.725 95.943 185.555 96.3523 186.305C96.7615 187.033 97.3072 187.613 97.9892 188.045C98.694 188.477 99.467 188.693 100.308 188.693C101.195 188.693 101.979 188.477 102.661 188.045C103.366 187.613 103.912 187.033 104.298 186.305C104.685 185.555 104.878 184.725 104.878 183.816C104.878 182.906 104.685 182.088 104.298 181.36C103.912 180.61 103.366 180.019 102.661 179.587C101.979 179.132 101.195 178.905 100.308 178.905C99.4443 178.905 98.6599 179.132 97.9551 179.587C97.273 180.042 96.7274 180.644 96.3182 181.395C95.9317 182.122 95.7384 182.929 95.7384 183.816Z" fill="#01273C"/>
<path d="M115.209 176.859L115.481 180.303L115.345 179.758C115.8 178.712 116.539 177.882 117.562 177.268C118.585 176.631 119.767 176.313 121.108 176.313C122.45 176.313 123.541 176.711 124.382 177.507C125.246 178.28 125.69 179.292 125.712 180.542V190.977H122.507V181.667C122.484 180.894 122.257 180.269 121.825 179.792C121.415 179.292 120.767 179.041 119.881 179.041C119.062 179.041 118.323 179.269 117.664 179.723C117.005 180.178 116.482 180.803 116.095 181.599C115.731 182.395 115.55 183.316 115.55 184.361V190.977H112.378V176.859H115.209Z" fill="#01273C"/>
<path d="M135.184 191.25C134.184 191.25 133.206 191.08 132.251 190.739C131.319 190.375 130.546 189.841 129.932 189.136L131.262 187.294C131.853 187.863 132.456 188.295 133.069 188.59C133.706 188.863 134.331 189 134.945 189C135.4 189 135.82 188.943 136.207 188.829C136.593 188.715 136.9 188.533 137.128 188.283C137.378 188.011 137.503 187.647 137.503 187.192C137.503 186.692 137.332 186.294 136.991 185.998C136.673 185.703 136.252 185.464 135.73 185.282C135.229 185.1 134.695 184.93 134.127 184.771C132.967 184.384 132.081 183.85 131.467 183.168C130.853 182.486 130.546 181.656 130.546 180.678C130.546 179.928 130.728 179.235 131.092 178.598C131.478 177.939 132.035 177.404 132.763 176.995C133.513 176.586 134.434 176.381 135.525 176.381C136.503 176.381 137.378 176.506 138.151 176.757C138.924 176.984 139.651 177.37 140.333 177.916L139.072 179.894C138.662 179.462 138.174 179.144 137.605 178.939C137.037 178.734 136.525 178.621 136.071 178.598C135.684 178.575 135.309 178.632 134.945 178.769C134.604 178.905 134.32 179.098 134.093 179.348C133.865 179.598 133.752 179.894 133.752 180.235C133.752 180.712 133.911 181.099 134.229 181.395C134.547 181.69 134.957 181.929 135.457 182.111C135.98 182.27 136.491 182.44 136.991 182.622C137.696 182.827 138.321 183.1 138.867 183.441C139.413 183.782 139.845 184.202 140.163 184.703C140.504 185.203 140.674 185.828 140.674 186.578C140.674 187.419 140.47 188.204 140.061 188.931C139.674 189.636 139.072 190.204 138.253 190.636C137.457 191.046 136.434 191.25 135.184 191.25Z" fill="#01273C"/>
<path d="M146.48 170.652H149.651V176.927H153.539V179.417H149.651V190.977H146.48V179.417H143.888V176.927H146.48V170.652Z" fill="#01273C"/>
<path d="M160.202 176.859L160.509 180.951L160.338 180.406C160.702 179.542 161.225 178.814 161.907 178.223C162.612 177.609 163.339 177.143 164.09 176.825C164.863 176.484 165.533 176.313 166.102 176.313L165.931 179.451C164.863 179.382 163.919 179.587 163.101 180.065C162.305 180.542 161.668 181.179 161.191 181.974C160.736 182.77 160.509 183.623 160.509 184.532V190.977H157.371V176.859H160.202Z" fill="#01273C"/>
<path d="M174.661 191.523C173.388 191.523 172.33 191.137 171.489 190.364C170.671 189.568 170.239 188.545 170.193 187.294V176.859H173.365V186.169C173.41 186.942 173.626 187.567 174.013 188.045C174.422 188.522 175.059 188.772 175.923 188.795C176.718 188.795 177.423 188.568 178.037 188.113C178.674 187.635 179.185 186.999 179.572 186.203C179.958 185.385 180.151 184.464 180.151 183.441V176.859H183.323V190.977H180.424L180.151 187.499L180.322 188.113C180.049 188.772 179.628 189.363 179.06 189.886C178.514 190.386 177.866 190.784 177.116 191.08C176.366 191.375 175.547 191.523 174.661 191.523Z" fill="#01273C"/>
<path d="M200.269 189.682C199.632 190.182 198.87 190.58 197.984 190.875C197.097 191.171 196.21 191.319 195.324 191.319C193.778 191.319 192.425 191.012 191.265 190.398C190.106 189.784 189.197 188.931 188.537 187.84C187.901 186.726 187.582 185.419 187.582 183.918C187.582 182.418 187.923 181.11 188.605 179.996C189.31 178.882 190.22 178.03 191.334 177.439C192.47 176.825 193.687 176.518 194.983 176.518C196.119 176.518 197.131 176.677 198.018 176.995C198.927 177.314 199.7 177.746 200.337 178.291L198.768 180.337C198.359 180.019 197.859 179.735 197.268 179.485C196.677 179.235 196.006 179.11 195.256 179.11C194.437 179.11 193.675 179.326 192.971 179.758C192.289 180.167 191.743 180.735 191.334 181.463C190.947 182.19 190.754 183.009 190.754 183.918C190.754 184.782 190.959 185.589 191.368 186.339C191.777 187.067 192.345 187.647 193.073 188.079C193.8 188.488 194.63 188.693 195.562 188.693C196.176 188.693 196.733 188.602 197.234 188.42C197.756 188.238 198.223 187.988 198.632 187.669L200.269 189.682Z" fill="#01273C"/>
<path d="M205.727 170.652H208.899V176.927H212.786V179.417H208.899V190.977H205.727V179.417H203.135V176.927H205.727V170.652Z" fill="#01273C"/>
<path d="M216.619 176.859H219.79V190.977H216.619V176.859ZM216.38 171.743C216.38 171.243 216.573 170.823 216.96 170.482C217.369 170.141 217.812 169.97 218.29 169.97C218.767 169.97 219.188 170.141 219.552 170.482C219.938 170.823 220.131 171.243 220.131 171.743C220.131 172.266 219.938 172.698 219.552 173.039C219.188 173.358 218.767 173.517 218.29 173.517C217.812 173.517 217.369 173.346 216.96 173.005C216.573 172.664 216.38 172.244 216.38 171.743Z" fill="#01273C"/>
<path d="M224.05 183.782C224.05 182.372 224.38 181.099 225.039 179.962C225.721 178.825 226.653 177.927 227.835 177.268C229.018 176.609 230.359 176.279 231.86 176.279C233.406 176.279 234.758 176.609 235.918 177.268C237.077 177.927 237.975 178.825 238.612 179.962C239.249 181.099 239.567 182.372 239.567 183.782C239.567 185.191 239.249 186.476 238.612 187.635C237.975 188.772 237.066 189.67 235.884 190.33C234.724 190.989 233.371 191.319 231.825 191.319C230.325 191.319 228.984 191.012 227.801 190.398C226.642 189.761 225.721 188.886 225.039 187.772C224.38 186.635 224.05 185.305 224.05 183.782ZM227.222 183.816C227.222 184.725 227.426 185.555 227.835 186.305C228.245 187.033 228.79 187.613 229.472 188.045C230.177 188.477 230.95 188.693 231.791 188.693C232.678 188.693 233.462 188.477 234.144 188.045C234.849 187.613 235.395 187.033 235.781 186.305C236.168 185.555 236.361 184.725 236.361 183.816C236.361 182.906 236.168 182.088 235.781 181.36C235.395 180.61 234.849 180.019 234.144 179.587C233.462 179.132 232.678 178.905 231.791 178.905C230.927 178.905 230.143 179.132 229.438 179.587C228.756 180.042 228.211 180.644 227.801 181.395C227.415 182.122 227.222 182.929 227.222 183.816Z" fill="#01273C"/>
<path d="M246.692 176.859L246.965 180.303L246.828 179.758C247.283 178.712 248.022 177.882 249.045 177.268C250.068 176.631 251.25 176.313 252.592 176.313C253.933 176.313 255.024 176.711 255.865 177.507C256.729 178.28 257.173 179.292 257.195 180.542V190.977H253.99V181.667C253.967 180.894 253.74 180.269 253.308 179.792C252.898 179.292 252.251 179.041 251.364 179.041C250.545 179.041 249.806 179.269 249.147 179.723C248.488 180.178 247.965 180.803 247.578 181.599C247.215 182.395 247.033 183.316 247.033 184.361V190.977H243.861V176.859H246.692Z" fill="#01273C"/>
<path d="M42.7348 92.3747L0 135.263H16.4365L45.3647 106.231L69.0332 129.984L106.508 92.3747H42.7348Z" fill="#01273C"/>
<path d="M220.249 92.3747L262.983 135.263H246.547L217.619 106.231L193.95 129.984L156.475 92.3747H220.249Z" fill="#01273C"/>
<path d="M64.4309 143.181L0 151.099H73.6354L130.834 99.6327L191.978 151.099H264.298L198.553 143.181L130.834 76.539L64.4309 143.181Z" fill="#01273C"/>
<path d="M99.831 144.481C96.4615 144.481 96.4615 151.758 99.831 151.758H162.447C164.412 151.758 165.535 145.321 162.447 144.481H158.516C157.954 131.886 152.9 124.049 141.107 118.451V138.324C139.602 139.113 138.901 138.96 137.737 138.324V114.253C132.335 113.198 129.255 113.271 123.698 114.253V138.324C122.492 139.194 121.816 139.099 120.609 138.324V118.451C107.954 124.791 103.481 133.286 102.92 144.481H99.831Z" fill="#01273C"/>
<path d="M39.4475 121.407H44.7072V126.685H39.4475V121.407Z" fill="#01273C"/>
<path d="M210.387 121.407H215.646V126.685H210.387V121.407Z" fill="#01273C"/>
<path d="M46.0221 121.407H51.2818V126.685H46.0221V121.407Z" fill="#01273C"/>
<path d="M216.961 121.407H222.221V126.685H216.961V121.407Z" fill="#01273C"/>
<path d="M39.4475 128.005H44.7072V133.283H39.4475V128.005Z" fill="#01273C"/>
<path d="M210.387 128.005H215.646V133.283H210.387V128.005Z" fill="#01273C"/>
<path d="M46.0221 128.005H51.2818V133.283H46.0221V128.005Z" fill="#01273C"/>
<path d="M216.961 128.005H222.221V133.283H216.961V128.005Z" fill="#01273C"/>
<path d="M195.923 50.4206V14.516L198.553 13.1964V49.7607L201.84 48.7288V11.8767L203.812 10.5571V48.4411L206.442 49.1009V57.6786L201.182 60.3179V65.5964L201.086 65.6387C198.275 66.8725 196.588 67.613 197.238 70.875C198.026 72.137 198.619 72.5343 199.867 72.8544C201.88 72.9648 202.847 72.17 204.47 70.2151V72.8544C201.84 75.4937 199.109 76.8349 195.923 72.1946C194.716 68.5691 194.905 66.7218 199.21 64.2768V57.0188L197.895 60.9777H193.95L193.293 51.7402L195.923 50.4206Z" fill="#01273C"/>
<path d="M68.3757 54.1052L57.8564 59.3837V79.1783L71.663 81.1578L82.8398 75.8792V69.281L212.359 7.25801V3.95892L207.099 0L73.6354 64.6623L82.8398 57.4043L68.3757 54.1052Z" fill="#01273C"/>
<path d="M88.0995 47.507L99.9337 40.9088V95.014H88.0995V47.507Z" fill="#01273C"/>
<path d="M130.494 145.915C130.399 145.994 130.219 146.102 129.957 146.237C129.702 146.372 129.388 146.492 129.014 146.595C128.64 146.699 128.226 146.746 127.773 146.738C127.08 146.722 126.46 146.599 125.911 146.368C125.369 146.13 124.908 145.807 124.526 145.402C124.152 144.996 123.865 144.53 123.667 144.005C123.468 143.48 123.368 142.919 123.368 142.322C123.368 141.654 123.468 141.041 123.667 140.484C123.873 139.927 124.164 139.445 124.538 139.04C124.92 138.634 125.373 138.319 125.899 138.097C126.424 137.874 127.005 137.762 127.641 137.762C128.23 137.762 128.751 137.842 129.205 138.001C129.658 138.16 130.028 138.331 130.315 138.514L129.635 140.15C129.436 139.998 129.169 139.843 128.835 139.684C128.509 139.517 128.131 139.433 127.701 139.433C127.367 139.433 127.044 139.505 126.734 139.648C126.432 139.784 126.161 139.979 125.922 140.233C125.692 140.488 125.509 140.786 125.373 141.128C125.238 141.463 125.171 141.829 125.171 142.227C125.171 142.648 125.23 143.034 125.35 143.384C125.477 143.734 125.656 144.037 125.887 144.291C126.117 144.538 126.392 144.729 126.71 144.864C127.037 145 127.403 145.067 127.808 145.067C128.278 145.067 128.68 144.992 129.014 144.841C129.348 144.689 129.603 144.53 129.778 144.363L130.494 145.915Z" fill="white"/>
<path d="M136.887 150.411L130.226 144.395L130.74 144.682L130.775 150.053H129.021V140.922H129.092L135.609 146.914L135.227 146.747L135.192 141.268H136.934V150.411H136.887Z" fill="white"/>
</svg>
