<svg width="140" height="80" viewBox="0 0 140 80" fill="none" xmlns="http://www.w3.org/2000/svg">
<path d="M59.3 2.6C60.0554 1.59277 61.241 1 62.5 1H135C137.209 1 139 2.79086 139 5V75C139 77.2091 137.209 79 135 79H10C6.70382 79 4.82229 75.2369 6.8 72.6L59.3 2.6Z" stroke="#FF9900" stroke-width="2"/>
<path d="M34 63H43L34 78H25L34 63Z" fill="black"/>
<path d="M52 63H61L52 78H43L52 63Z" fill="black"/>
<path d="M70 63H79L70 78H61L70 63Z" fill="black"/>
<path d="M88 63H97L88 78H79L88 63Z" fill="black"/>
<path d="M106 63H115L106 78H97L106 63Z" fill="black"/>
<path d="M70 19L93 7L116 19V29L93 17L70 29V19Z" fill="#FF9900"/>
<path d="M65 38L93 23L121 38V48L93 33L65 48V38Z" fill="#FF9900"/>
<path d="M71.816 57C71.7627 57 71.7173 56.9813 71.68 56.944C71.6427 56.9067 71.624 56.8613 71.624 56.808V51.6C71.624 51.5413 71.6427 51.4933 71.68 51.456C71.7173 51.4187 71.7627 51.4 71.816 51.4H74.136C74.568 51.4 74.92 51.4667 75.192 51.6C75.464 51.728 75.664 51.9067 75.792 52.136C75.9253 52.3653 75.992 52.632 75.992 52.936C75.992 53.1387 75.9547 53.3173 75.88 53.472C75.8107 53.6213 75.7227 53.744 75.616 53.84C75.5147 53.936 75.4133 54.0107 75.312 54.064C75.52 54.16 75.704 54.32 75.864 54.544C76.024 54.768 76.104 55.0347 76.104 55.344C76.104 55.664 76.032 55.9493 75.888 56.2C75.744 56.4507 75.5307 56.648 75.248 56.792C74.9653 56.9307 74.616 57 74.2 57H71.816ZM72.736 56.152H74.072C74.36 56.152 74.5787 56.0747 74.728 55.92C74.8773 55.76 74.952 55.568 74.952 55.344C74.952 55.1093 74.8747 54.9147 74.72 54.76C74.5707 54.6053 74.3547 54.528 74.072 54.528H72.736V56.152ZM72.736 53.696H73.992C74.2747 53.696 74.4853 53.6293 74.624 53.496C74.768 53.3573 74.84 53.1787 74.84 52.96C74.84 52.736 74.768 52.5627 74.624 52.44C74.4853 52.312 74.2747 52.248 73.992 52.248H72.736V53.696ZM78.2204 57.08C77.943 57.08 77.6924 57.0267 77.4684 56.92C77.2444 56.808 77.0657 56.6613 76.9324 56.48C76.8044 56.2933 76.7404 56.0853 76.7404 55.856C76.7404 55.4827 76.8897 55.1867 77.1884 54.968C77.4924 54.744 77.8924 54.5947 78.3884 54.52L79.4844 54.36V54.192C79.4844 53.968 79.4284 53.7947 79.3164 53.672C79.2044 53.5493 79.0124 53.488 78.7404 53.488C78.5484 53.488 78.391 53.528 78.2684 53.608C78.151 53.6827 78.063 53.784 78.0044 53.912C77.9617 53.9813 77.9004 54.016 77.8204 54.016H77.1884C77.1297 54.016 77.0844 54 77.0524 53.968C77.0257 53.936 77.0124 53.8933 77.0124 53.84C77.0177 53.7547 77.0524 53.6507 77.1164 53.528C77.1804 53.4053 77.2817 53.288 77.4204 53.176C77.559 53.0587 77.7377 52.96 77.9564 52.88C78.175 52.8 78.439 52.76 78.7484 52.76C79.0844 52.76 79.367 52.8027 79.5964 52.888C79.831 52.968 80.0177 53.0773 80.1564 53.216C80.295 53.3547 80.3964 53.5173 80.4604 53.704C80.5244 53.8907 80.5564 54.088 80.5564 54.296V56.808C80.5564 56.8613 80.5377 56.9067 80.5004 56.944C80.463 56.9813 80.4177 57 80.3644 57H79.7164C79.6577 57 79.6097 56.9813 79.5724 56.944C79.5404 56.9067 79.5244 56.8613 79.5244 56.808V56.496C79.455 56.5973 79.3617 56.6933 79.2444 56.784C79.127 56.8693 78.983 56.9413 78.8124 57C78.647 57.0533 78.4497 57.08 78.2204 57.08ZM78.4924 56.32C78.679 56.32 78.847 56.28 78.9964 56.2C79.151 56.12 79.271 55.9973 79.3564 55.832C79.447 55.6613 79.4924 55.448 79.4924 55.192V55.024L78.6924 55.152C78.3777 55.2 78.143 55.2773 77.9884 55.384C77.8337 55.4907 77.7564 55.6213 77.7564 55.776C77.7564 55.8933 77.791 55.9947 77.8604 56.08C77.935 56.16 78.0284 56.2213 78.1404 56.264C78.2524 56.3013 78.3697 56.32 78.4924 56.32ZM83.3827 57.08C82.9987 57.08 82.66 57.008 82.3667 56.864C82.0787 56.72 81.852 56.512 81.6867 56.24C81.5267 55.9627 81.4387 55.6293 81.4227 55.24C81.4174 55.16 81.4147 55.056 81.4147 54.928C81.4147 54.7947 81.4174 54.6853 81.4227 54.6C81.4387 54.2107 81.5267 53.88 81.6867 53.608C81.852 53.3307 82.0787 53.12 82.3667 52.976C82.66 52.832 82.9987 52.76 83.3827 52.76C83.724 52.76 84.0147 52.808 84.2547 52.904C84.4947 53 84.692 53.12 84.8467 53.264C85.0014 53.408 85.116 53.56 85.1907 53.72C85.2707 53.8747 85.3134 54.016 85.3187 54.144C85.324 54.2027 85.3054 54.2507 85.2627 54.288C85.2254 54.32 85.18 54.336 85.1267 54.336H84.4227C84.3694 54.336 84.3267 54.3227 84.2947 54.296C84.268 54.2693 84.2414 54.2293 84.2147 54.176C84.1347 53.9627 84.028 53.8133 83.8947 53.728C83.7667 53.6373 83.6014 53.592 83.3987 53.592C83.132 53.592 82.9187 53.6773 82.7587 53.848C82.604 54.0133 82.5214 54.2773 82.5107 54.64C82.5 54.8427 82.5 55.0293 82.5107 55.2C82.5214 55.568 82.604 55.8347 82.7587 56C82.9187 56.1653 83.132 56.248 83.3987 56.248C83.6067 56.248 83.7747 56.2053 83.9027 56.12C84.0307 56.0293 84.1347 55.8773 84.2147 55.664C84.2414 55.6107 84.268 55.5707 84.2947 55.544C84.3267 55.5173 84.3694 55.504 84.4227 55.504H85.1267C85.18 55.504 85.2254 55.5227 85.2627 55.56C85.3054 55.592 85.324 55.6373 85.3187 55.696C85.3134 55.792 85.2867 55.9013 85.2387 56.024C85.196 56.1413 85.124 56.264 85.0227 56.392C84.9267 56.5147 84.804 56.6293 84.6547 56.736C84.5054 56.8373 84.324 56.92 84.1107 56.984C83.9027 57.048 83.66 57.08 83.3827 57.08ZM86.353 57C86.2997 57 86.2543 56.9813 86.217 56.944C86.1797 56.9067 86.161 56.8613 86.161 56.808V51.512C86.161 51.4587 86.1797 51.4133 86.217 51.376C86.2543 51.3387 86.2997 51.32 86.353 51.32H87.001C87.0597 51.32 87.105 51.3387 87.137 51.376C87.1743 51.4133 87.193 51.4587 87.193 51.512V54.248L88.537 52.976C88.585 52.9333 88.6277 52.9013 88.665 52.88C88.7023 52.8533 88.7583 52.84 88.833 52.84H89.577C89.6303 52.84 89.673 52.856 89.705 52.888C89.737 52.92 89.753 52.9627 89.753 53.016C89.753 53.0373 89.7477 53.0613 89.737 53.088C89.7263 53.1147 89.705 53.1387 89.673 53.16L88.025 54.704L89.873 56.688C89.9263 56.7413 89.953 56.7867 89.953 56.824C89.953 56.8773 89.9343 56.92 89.897 56.952C89.865 56.984 89.825 57 89.777 57H89.017C88.937 57 88.8783 56.9893 88.841 56.968C88.809 56.9413 88.769 56.9067 88.721 56.864L87.193 55.256V56.808C87.193 56.8613 87.1743 56.9067 87.137 56.944C87.105 56.9813 87.0597 57 87.001 57H86.353ZM94.0408 57C93.7208 57 93.4515 56.944 93.2328 56.832C93.0141 56.72 92.8515 56.5547 92.7448 56.336C92.6381 56.112 92.5848 55.8347 92.5848 55.504V53.688H91.9528C91.8995 53.688 91.8541 53.6693 91.8168 53.632C91.7795 53.5947 91.7608 53.5493 91.7608 53.496V53.032C91.7608 52.9787 91.7795 52.9333 91.8168 52.896C91.8541 52.8587 91.8995 52.84 91.9528 52.84H92.5848V51.512C92.5848 51.4587 92.6008 51.4133 92.6328 51.376C92.6701 51.3387 92.7181 51.32 92.7768 51.32H93.4248C93.4781 51.32 93.5235 51.3387 93.5608 51.376C93.5981 51.4133 93.6168 51.4587 93.6168 51.512V52.84H94.6168C94.6701 52.84 94.7155 52.8587 94.7528 52.896C94.7901 52.9333 94.8088 52.9787 94.8088 53.032V53.496C94.8088 53.5493 94.7901 53.5947 94.7528 53.632C94.7155 53.6693 94.6701 53.688 94.6168 53.688H93.6168V55.424C93.6168 55.6427 93.6541 55.8133 93.7288 55.936C93.8088 56.0587 93.9448 56.12 94.1368 56.12H94.6888C94.7421 56.12 94.7875 56.1387 94.8248 56.176C94.8621 56.2133 94.8808 56.2587 94.8808 56.312V56.808C94.8808 56.8613 94.8621 56.9067 94.8248 56.944C94.7875 56.9813 94.7421 57 94.6888 57H94.0408ZM97.4305 57.08C97.0038 57.08 96.6438 57.0053 96.3505 56.856C96.0625 56.7067 95.8412 56.496 95.6865 56.224C95.5372 55.952 95.4518 55.6347 95.4305 55.272C95.4252 55.176 95.4225 55.0587 95.4225 54.92C95.4225 54.7813 95.4252 54.664 95.4305 54.568C95.4518 54.2 95.5398 53.8827 95.6945 53.616C95.8545 53.344 96.0785 53.1333 96.3665 52.984C96.6598 52.8347 97.0145 52.76 97.4305 52.76C97.8465 52.76 98.1985 52.8347 98.4865 52.984C98.7798 53.1333 99.0038 53.344 99.1585 53.616C99.3185 53.8827 99.4092 54.2 99.4305 54.568C99.4358 54.664 99.4385 54.7813 99.4385 54.92C99.4385 55.0587 99.4358 55.176 99.4305 55.272C99.4092 55.6347 99.3212 55.952 99.1665 56.224C99.0172 56.496 98.7958 56.7067 98.5025 56.856C98.2145 57.0053 97.8572 57.08 97.4305 57.08ZM97.4305 56.288C97.7132 56.288 97.9318 56.2 98.0865 56.024C98.2412 55.8427 98.3265 55.5787 98.3425 55.232C98.3478 55.152 98.3505 55.048 98.3505 54.92C98.3505 54.792 98.3478 54.688 98.3425 54.608C98.3265 54.2667 98.2412 54.0053 98.0865 53.824C97.9318 53.6427 97.7132 53.552 97.4305 53.552C97.1478 53.552 96.9292 53.6427 96.7745 53.824C96.6198 54.0053 96.5345 54.2667 96.5185 54.608C96.5132 54.688 96.5105 54.792 96.5105 54.92C96.5105 55.048 96.5132 55.152 96.5185 55.232C96.5345 55.5787 96.6198 55.8427 96.7745 56.024C96.9292 56.2 97.1478 56.288 97.4305 56.288ZM103.478 57C103.424 57 103.379 56.9813 103.342 56.944C103.304 56.9067 103.286 56.8613 103.286 56.808V52.384H101.806C101.752 52.384 101.707 52.3653 101.67 52.328C101.632 52.2907 101.614 52.2453 101.614 52.192V51.6C101.614 51.5413 101.632 51.4933 101.67 51.456C101.707 51.4187 101.752 51.4 101.806 51.4H105.886C105.944 51.4 105.992 51.4187 106.03 51.456C106.067 51.4933 106.086 51.5413 106.086 51.6V52.192C106.086 52.2453 106.067 52.2907 106.03 52.328C105.992 52.3653 105.944 52.384 105.886 52.384H104.414V56.808C104.414 56.8613 104.395 56.9067 104.358 56.944C104.32 56.9813 104.272 57 104.214 57H103.478ZM107.907 57.08C107.48 57.08 107.12 57.0053 106.827 56.856C106.539 56.7067 106.318 56.496 106.163 56.224C106.014 55.952 105.928 55.6347 105.907 55.272C105.902 55.176 105.899 55.0587 105.899 54.92C105.899 54.7813 105.902 54.664 105.907 54.568C105.928 54.2 106.016 53.8827 106.171 53.616C106.331 53.344 106.555 53.1333 106.843 52.984C107.136 52.8347 107.491 52.76 107.907 52.76C108.323 52.76 108.675 52.8347 108.963 52.984C109.256 53.1333 109.48 53.344 109.635 53.616C109.795 53.8827 109.886 54.2 109.907 54.568C109.912 54.664 109.915 54.7813 109.915 54.92C109.915 55.0587 109.912 55.176 109.907 55.272C109.886 55.6347 109.798 55.952 109.643 56.224C109.494 56.496 109.272 56.7067 108.979 56.856C108.691 57.0053 108.334 57.08 107.907 57.08ZM107.907 56.288C108.19 56.288 108.408 56.2 108.563 56.024C108.718 55.8427 108.803 55.5787 108.819 55.232C108.824 55.152 108.827 55.048 108.827 54.92C108.827 54.792 108.824 54.688 108.819 54.608C108.803 54.2667 108.718 54.0053 108.563 53.824C108.408 53.6427 108.19 53.552 107.907 53.552C107.624 53.552 107.406 53.6427 107.251 53.824C107.096 54.0053 107.011 54.2667 106.995 54.608C106.99 54.688 106.987 54.792 106.987 54.92C106.987 55.048 106.99 55.152 106.995 55.232C107.011 55.5787 107.096 55.8427 107.251 56.024C107.406 56.2 107.624 56.288 107.907 56.288ZM111.001 58.52C110.948 58.52 110.903 58.5013 110.865 58.464C110.828 58.4267 110.809 58.3813 110.809 58.328V53.032C110.809 52.9787 110.828 52.9333 110.865 52.896C110.903 52.8587 110.948 52.84 111.001 52.84H111.633C111.692 52.84 111.737 52.8587 111.769 52.896C111.807 52.9333 111.825 52.9787 111.825 53.032V53.352C111.953 53.1813 112.121 53.04 112.329 52.928C112.537 52.816 112.796 52.76 113.105 52.76C113.388 52.76 113.633 52.8053 113.841 52.896C114.049 52.9867 114.223 53.1173 114.361 53.288C114.5 53.4533 114.607 53.6507 114.681 53.88C114.756 54.1093 114.799 54.3627 114.809 54.64C114.815 54.7307 114.817 54.824 114.817 54.92C114.817 55.016 114.815 55.112 114.809 55.208C114.804 55.4747 114.764 55.7227 114.689 55.952C114.615 56.176 114.505 56.3733 114.361 56.544C114.223 56.7093 114.049 56.84 113.841 56.936C113.633 57.032 113.388 57.08 113.105 57.08C112.817 57.08 112.572 57.0293 112.369 56.928C112.167 56.8213 112.001 56.6827 111.873 56.512V58.328C111.873 58.3813 111.855 58.4267 111.817 58.464C111.785 58.5013 111.74 58.52 111.681 58.52H111.001ZM112.809 56.224C113.039 56.224 113.217 56.176 113.345 56.08C113.473 55.9787 113.564 55.848 113.617 55.688C113.676 55.528 113.711 55.352 113.721 55.16C113.732 55 113.732 54.84 113.721 54.68C113.711 54.488 113.676 54.312 113.617 54.152C113.564 53.992 113.473 53.864 113.345 53.768C113.217 53.6667 113.039 53.616 112.809 53.616C112.591 53.616 112.412 53.6667 112.273 53.768C112.14 53.8693 112.041 54 111.977 54.16C111.919 54.3147 111.884 54.4747 111.873 54.64C111.868 54.736 111.865 54.8373 111.865 54.944C111.865 55.0507 111.868 55.1547 111.873 55.256C111.879 55.416 111.916 55.5707 111.985 55.72C112.055 55.864 112.156 55.984 112.289 56.08C112.423 56.176 112.596 56.224 112.809 56.224Z" fill="black"/>
</svg>
