<svg width="27" height="22" viewBox="0 0 27 22" fill="none" xmlns="http://www.w3.org/2000/svg">
<path d="M8.86903 16.7518C8.86903 16.7518 4.97096 19.6989 1.48322 19.2924C-2.00452 18.8859 14.3058 25.2883 20.9735 15.6339C23.5381 11.9754 23.7432 8.21534 23.8458 6.99585C23.8458 6.7926 23.9484 6.48772 24.051 6.28447L26 3.54061L23.5381 4.25198L25.8974 1L23.1277 2.21949C22.7174 2.42274 22.2045 2.32112 21.7942 2.11787C20.7684 1.4065 18.5116 0.187004 15.9471 2.01625C13.8955 3.43899 13.3826 4.96336 13.1774 5.9796C13.0748 6.69097 12.3568 7.1991 11.6387 6.99585C9.68967 6.58935 6.40709 5.67473 4.04774 3.54061C3.32967 2.72762 1.89354 3.13412 1.89354 4.25198C1.89354 5.26823 2.30386 6.7926 4.04774 8.82509L1.89354 7.80884C1.89354 7.80884 1.48322 11.0608 5.79161 12.9917L3.63741 13.3982" stroke="white" stroke-width="2" stroke-miterlimit="10" stroke-linecap="round" stroke-linejoin="round"/>
</svg>
