<svg width="29" height="27" viewBox="0 0 29 27" fill="none" xmlns="http://www.w3.org/2000/svg">
<path d="M4.04428 6.80982C5.72559 6.80982 7.08857 5.50925 7.08857 3.90491C7.08857 2.30057 5.72559 1 4.04428 1C2.36297 1 1 2.30057 1 3.90491C1 5.50925 2.36297 6.80982 4.04428 6.80982Z" stroke="white" stroke-width="2" stroke-miterlimit="10" stroke-linecap="round" stroke-linejoin="round"/>
<path d="M24.1256 26C23.4798 26 22.9263 25.4719 22.9263 24.8557V18.0776C22.9263 14.2924 21.727 13.06 19.9743 13.06C18.2215 13.06 16.3765 14.1163 16.3765 17.4614L16.0997 24.7677C16.0997 25.3838 15.5462 25.912 14.9005 25.912H12.3174C11.6717 25.912 11.1182 25.3838 11.1182 24.7677V10.2431C11.1182 9.62692 11.6717 9.09875 12.3174 9.09875H14.9005C15.5462 9.09875 16.0997 9.62692 16.0997 10.2431V12.1797C17.299 8.65861 19.513 8.39453 21.727 8.39453C23.9411 8.39453 28.0001 9.53889 28.0001 14.1163V24.7677" stroke="white" stroke-width="2" stroke-miterlimit="10" stroke-linecap="round" stroke-linejoin="round"/>
<path d="M5.336 25.9997H2.75297C2.10722 25.9997 1.55371 25.4715 1.55371 24.8553V10.2427C1.55371 9.62655 2.10722 9.09839 2.75297 9.09839H5.336C5.98176 9.09839 6.53527 9.62655 6.53527 10.2427V24.7673C6.53527 25.4715 5.98176 25.9997 5.336 25.9997Z" stroke="white" stroke-width="2" stroke-miterlimit="10" stroke-linecap="round" stroke-linejoin="round"/>
</svg>
