<svg width="27" height="27" viewBox="0 0 27 27" fill="none" xmlns="http://www.w3.org/2000/svg">
<path d="M13.6854 20.4443C17.7253 20.4443 21.0002 17.275 21.0002 13.3655C21.0002 9.45593 17.7253 6.28662 13.6854 6.28662C9.64556 6.28662 6.37061 9.45593 6.37061 13.3655C6.37061 17.275 9.64556 20.4443 13.6854 20.4443Z" stroke="white" stroke-width="2" stroke-miterlimit="10" stroke-linecap="round" stroke-linejoin="round"/>
<path d="M22.5741 8.7957H26V22.5054C26 24.3871 24.4259 26 22.3889 26H4.61111C2.66667 26 1 24.4767 1 22.5054V4.49462C1 2.5233 2.66667 1 4.61111 1H22.4815C23.963 1 25.3519 2.07527 25.8148 3.32975L19.7963 3.24014C19.3333 3.24014 18.8704 3.59857 18.8704 4.1362L18.963 5.7491" stroke="white" stroke-width="2" stroke-miterlimit="10" stroke-linecap="round" stroke-linejoin="round"/>
<path d="M1.18506 11.3047H6.27765" stroke="white" stroke-width="2" stroke-miterlimit="10" stroke-linecap="round" stroke-linejoin="round"/>
</svg>
