<svg width="72" height="80" viewBox="0 0 72 80" fill="none" xmlns="http://www.w3.org/2000/svg">
<path d="M61.3333 76.3441C61.3333 76.8964 60.8856 77.3441 60.3333 77.3441H3.66667C3.11438 77.3441 2.66667 76.8964 2.66667 76.3441V25.4017C2.66667 25.0838 2.81782 24.7849 3.07383 24.5964L31.4072 3.73901C31.7598 3.47944 32.2402 3.47944 32.5928 3.73901L60.9262 24.5964C61.1822 24.7849 61.3333 25.0838 61.3333 25.4017V33.8499C61.3333 34.4022 61.7811 34.8499 62.3333 34.8499H63C63.5523 34.8499 64 34.4022 64 33.8499V24.0622C64 23.7443 63.8489 23.4453 63.5928 23.2568L32.5928 0.436409C32.2402 0.176842 31.7598 0.176843 31.4072 0.43641L0.407168 23.2568C0.151154 23.4453 0 23.7443 0 24.0622V79C0 79.5523 0.447715 80 1 80H63C63.5523 80 64 79.5523 64 79V69.0485C64 68.4962 63.5523 68.0485 63 68.0485H62.3333C61.7811 68.0485 61.3333 68.4962 61.3333 69.0485V76.3441Z" fill="#01273C"/>
<path d="M64.9998 44.1455C64.4476 44.1455 63.9998 43.6978 63.9998 43.1455V42.8161C63.9999 41.4078 63.4381 40.0571 62.4383 39.0612C61.4384 38.0653 60.0822 37.5058 58.6681 37.5058H48.9998C48.4476 37.5058 47.9998 37.0581 47.9998 36.5058V34.522C47.9998 33.9697 48.4476 33.522 48.9998 33.522H52.3332C52.8855 33.522 53.3332 33.0743 53.3332 32.522V23.8984C53.3332 23.3462 52.8855 22.8984 52.3332 22.8984H11.6665C11.1142 22.8984 10.6665 23.3462 10.6665 23.8984V32.522C10.6665 33.0743 11.1142 33.522 11.6665 33.522H14.9998C15.5521 33.522 15.9998 33.9697 15.9998 34.522V68.0485C16.0014 69.4568 16.5639 70.807 17.5637 71.8028C18.5636 72.7986 19.9192 73.3587 21.3332 73.3603H50.6665C52.0805 73.3587 53.4361 72.7986 54.436 71.8028C55.4358 70.807 55.9982 69.4568 55.9998 68.0485V66.3927C55.9998 65.8404 56.4476 65.3927 56.9998 65.3927H66.6665C68.0805 65.3911 69.4361 64.8309 70.436 63.8351C71.4358 62.8393 71.9982 61.4892 71.9999 60.0809V45.1455C71.9999 44.5933 71.5521 44.1455 70.9999 44.1455H64.9998ZM16.9998 28.2102C16.4476 28.2102 15.9998 28.6579 15.9998 29.2102V29.8661C15.9998 30.4184 15.5521 30.8661 14.9998 30.8661H14.3332C13.7809 30.8661 13.3332 30.4184 13.3332 29.8661V26.5543C13.3332 26.002 13.7809 25.5543 14.3332 25.5543H49.6665C50.2188 25.5543 50.6665 26.002 50.6665 26.5543V29.8661C50.6665 30.4184 50.2188 30.8661 49.6665 30.8661H48.9998C48.4476 30.8661 47.9998 30.4184 47.9998 29.8661V29.2102C47.9998 28.6579 47.5521 28.2102 46.9998 28.2102H16.9998ZM21.3332 70.7044C20.6262 70.7036 19.9484 70.4235 19.4484 69.9256C18.9485 69.4277 18.6673 68.7527 18.6665 68.0485V31.8661C18.6665 31.3138 19.1142 30.8661 19.6665 30.8661H44.3332C44.8855 30.8661 45.3332 31.3138 45.3332 31.8661V68.0485C45.3327 68.3979 45.3671 68.745 45.435 69.0849C45.5861 69.8415 45.0807 70.7044 44.3091 70.7044H21.3332ZM53.3332 42.8191V68.0485C53.3332 68.7529 53.0522 69.4285 52.5521 69.9265C52.052 70.4246 51.3738 70.7044 50.6665 70.7044C49.9593 70.7044 49.281 70.4246 48.7809 69.9265C48.2808 69.4285 47.9998 68.7529 47.9998 68.0485V41.1617C47.9998 40.6094 48.4476 40.1617 48.9998 40.1617H52.3096C53.0816 40.1617 53.5872 41.0256 53.4356 41.7825C53.3675 42.1225 53.3329 42.4696 53.3332 42.8191ZM56.9998 62.7368C56.4476 62.7368 55.9998 62.289 55.9998 61.7368V42.8191C56.0007 42.1147 56.2819 41.4394 56.7819 40.9413C57.2819 40.4432 57.9598 40.1628 58.667 40.1617H58.668C59.018 40.1617 59.3646 40.2304 59.6879 40.3637C60.0113 40.4971 60.3051 40.6927 60.5526 40.9392C60.8001 41.1856 60.9964 41.4783 61.1303 41.8003C61.2643 42.1224 61.3332 42.4676 61.3332 42.8161V60.0809C61.3329 60.4299 61.3674 60.7767 61.4353 61.1162C61.5867 61.8731 61.0812 62.7368 60.3093 62.7368H56.9998ZM69.3332 60.0809C69.3332 60.7853 69.0522 61.4608 68.5521 61.9589C68.052 62.4569 67.3738 62.7368 66.6665 62.7368C65.9593 62.7368 65.281 62.4569 64.7809 61.9589C64.2808 61.4608 63.9998 60.7853 63.9998 60.0809V47.8014C63.9998 47.2491 64.4476 46.8014 64.9998 46.8014H68.3332C68.8855 46.8014 69.3332 47.2491 69.3332 47.8014V60.0809Z" fill="#01273C"/>
<path d="M30.0414 45.2587C29.7557 45.7329 29.9097 46.3491 30.385 46.6331L30.9548 46.9736C31.4277 47.2562 32.0401 47.1031 32.3244 46.6313L36.1085 40.3499C36.5101 39.6834 36.0301 38.8339 35.252 38.8339H33.4584C32.6803 38.8339 32.2003 37.9843 32.6018 37.3179L33.959 35.065C34.2447 34.5907 34.0907 33.9745 33.6154 33.6905L33.0455 33.35C32.5726 33.0674 31.9603 33.2205 31.676 33.6924L27.8918 39.9737C27.4903 40.6402 27.9703 41.4898 28.7484 41.4898H30.542C31.3201 41.4898 31.8001 42.3393 31.3986 43.0058L30.0414 45.2587Z" fill="#FF9900"/>
<path d="M21.3335 61.7367C21.3335 62.289 21.7812 62.7367 22.3335 62.7367H41.6668C42.2191 62.7367 42.6668 62.289 42.6668 61.7367V50.4573C42.6668 49.905 42.2191 49.4573 41.6668 49.4573H22.3335C21.7812 49.4573 21.3335 49.905 21.3335 50.4573V61.7367ZM33.3335 53.1132C33.3335 52.5609 33.7812 52.1132 34.3335 52.1132H39.0002C39.5525 52.1132 40.0002 52.5609 40.0002 53.1132V53.7691C40.0002 54.3213 39.5525 54.7691 39.0002 54.7691H34.3335C33.7812 54.7691 33.3335 54.3213 33.3335 53.7691V53.1132ZM33.3335 58.4249C33.3335 57.8727 33.7812 57.4249 34.3335 57.4249H39.0002C39.5525 57.4249 40.0002 57.8727 40.0002 58.4249V59.0808C40.0002 59.6331 39.5525 60.0808 39.0002 60.0808H34.3335C33.7812 60.0808 33.3335 59.6331 33.3335 59.0808V58.4249ZM24.0002 53.1132C24.0002 52.5609 24.4479 52.1132 25.0002 52.1132H29.6668C30.2191 52.1132 30.6668 52.5609 30.6668 53.1132V53.7691C30.6668 54.3213 30.2191 54.7691 29.6668 54.7691H25.0002C24.4479 54.7691 24.0002 54.3213 24.0002 53.7691V53.1132ZM24.0002 58.4249C24.0002 57.8727 24.4479 57.4249 25.0002 57.4249H29.6668C30.2191 57.4249 30.6668 57.8727 30.6668 58.4249V59.0808C30.6668 59.6331 30.2191 60.0808 29.6668 60.0808H25.0002C24.4479 60.0808 24.0002 59.6331 24.0002 59.0808V58.4249Z" fill="#01273C"/>
<path d="M41.6668 65.3926H38.3335C37.7812 65.3926 37.3335 65.8403 37.3335 66.3926V67.0485C37.3335 67.6008 37.7812 68.0485 38.3335 68.0485H41.6668C42.2191 68.0485 42.6668 67.6008 42.6668 67.0485V66.3926C42.6668 65.8403 42.2191 65.3926 41.6668 65.3926Z" fill="#FF9900"/>
<path d="M33.6668 65.3926H22.3335C21.7812 65.3926 21.3335 65.8403 21.3335 66.3926V67.0485C21.3335 67.6008 21.7812 68.0485 22.3335 68.0485H33.6668C34.2191 68.0485 34.6668 67.6008 34.6668 67.0485V66.3926C34.6668 65.8403 34.2191 65.3926 33.6668 65.3926Z" fill="#FF9900"/>
</svg>
