<svg width="150" height="80" viewBox="0 0 150 80" fill="none" xmlns="http://www.w3.org/2000/svg">
<circle cx="136.5" cy="66.5" r="12.35" stroke="#01273C" stroke-width="2.3"/>
<circle cx="136.5" cy="66.5" r="6.35" stroke="#FF9900" stroke-width="2.3"/>
<mask id="path-3-inside-1_590_498" fill="white">
<path d="M123 13.5C123 6.04416 129.044 0 136.5 0C143.956 0 150 6.04416 150 13.5V68H123V13.5Z"/>
</mask>
<path d="M120.7 13.5C120.7 4.7739 127.774 -2.3 136.5 -2.3C145.226 -2.3 152.3 4.7739 152.3 13.5H147.7C147.7 7.31441 142.686 2.3 136.5 2.3C130.314 2.3 125.3 7.31441 125.3 13.5H120.7ZM150 68H123H150ZM120.7 68V13.5C120.7 4.7739 127.774 -2.3 136.5 -2.3V2.3C130.314 2.3 125.3 7.31441 125.3 13.5V68H120.7ZM136.5 -2.3C145.226 -2.3 152.3 4.7739 152.3 13.5V68H147.7V13.5C147.7 7.31441 142.686 2.3 136.5 2.3V-2.3Z" fill="#01273C" mask="url(#path-3-inside-1_590_498)"/>
<path fill-rule="evenodd" clip-rule="evenodd" d="M2.3 77.7V19.3H123V17H2C0.895431 17 0 17.8954 0 19V78C0 79.1046 0.895429 80 2 80H138C144.627 80 150 74.6274 150 68V20H147.7V68C147.7 73.3572 143.357 77.7 138 77.7H2.3Z" fill="#01273C"/>
<path d="M12.4142 49L12.5203 48.8939C12.5204 48.894 12.5204 48.8941 12.5205 48.8942L12.5203 48.8939L12.4142 49ZM12.4142 49L12.5203 49.1061C12.5204 49.106 12.5204 49.1059 12.5205 49.1058L12.5203 49.1061L12.4142 49ZM20 41.4142L20.1061 41.5203C20.106 41.5204 20.1059 41.5204 20.1058 41.5205L20.1061 41.5203L20 41.4142ZM20 41.4142L19.8939 41.5203C19.894 41.5204 19.8941 41.5204 19.8942 41.5205L19.8939 41.5203L20 41.4142ZM20 41.6263L27.3737 49L20 56.3737L12.6263 49L20 41.6263ZM20.1061 56.4797L20.1057 56.4794L20.1061 56.4797Z" stroke="#01273C" stroke-width="2.3"/>
<path d="M41.4142 49L41.5203 48.8939C41.5204 48.894 41.5204 48.8941 41.5205 48.8942L41.5203 48.8939L41.4142 49ZM41.4142 49L41.5203 49.1061C41.5204 49.106 41.5204 49.1059 41.5205 49.1058L41.5203 49.1061L41.4142 49ZM49 41.4142L49.1061 41.5203C49.106 41.5204 49.1059 41.5204 49.1058 41.5205L49.1061 41.5203L49 41.4142ZM49 41.4142L48.8939 41.5203C48.894 41.5204 48.8941 41.5204 48.8942 41.5205L48.8939 41.5203L49 41.4142ZM49 41.6263L56.3737 49L49 56.3737L41.6263 49L49 41.6263ZM49.1061 56.4797L49.1057 56.4794L49.1061 56.4797Z" stroke="#01273C" stroke-width="2.3"/>
<path d="M70.4142 49L70.5203 48.8939C70.5204 48.894 70.5204 48.8941 70.5205 48.8942L70.5203 48.8939L70.4142 49ZM70.4142 49L70.5203 49.1061C70.5204 49.106 70.5204 49.1059 70.5205 49.1058L70.5203 49.1061L70.4142 49ZM78 41.4142L78.1061 41.5203C78.106 41.5204 78.1059 41.5204 78.1058 41.5205L78.1061 41.5203L78 41.4142ZM78 41.4142L77.8939 41.5203C77.894 41.5204 77.8941 41.5204 77.8942 41.5205L77.8939 41.5203L78 41.4142ZM78 41.6263L85.3737 49L78 56.3737L70.6263 49L78 41.6263ZM78.1061 56.4797L78.1057 56.4794L78.1061 56.4797Z" stroke="#01273C" stroke-width="2.3"/>
<path d="M99.4142 49L99.5203 48.8939C99.5204 48.894 99.5204 48.8941 99.5205 48.8942L99.5203 48.8939L99.4142 49ZM99.4142 49L99.5203 49.1061C99.5204 49.106 99.5204 49.1059 99.5205 49.1058L99.5203 49.1061L99.4142 49ZM107 41.4142L107.106 41.5203C107.106 41.5204 107.106 41.5204 107.106 41.5205L107.106 41.5203L107 41.4142ZM107 41.4142L106.894 41.5203C106.894 41.5204 106.894 41.5204 106.894 41.5205L106.894 41.5203L107 41.4142ZM107 41.6263L114.374 49L107 56.3737L99.6263 49L107 41.6263ZM107.106 56.4797L107.106 56.4794L107.106 56.4797Z" stroke="#01273C" stroke-width="2.3"/>
<path fill-rule="evenodd" clip-rule="evenodd" d="M13.4142 74.0001L19.5858 67.8285L25.7574 74.0001L21.7574 78H24.5858L27.8787 74.7072C28.2692 74.3167 28.2692 73.6835 27.8787 73.293L20.2929 65.7072C19.9024 65.3167 19.2692 65.3167 18.8787 65.7072L11.2929 73.293C10.9024 73.6835 10.9024 74.3167 11.2929 74.7072L14.5857 78H17.4142L13.4142 74.0001Z" fill="#01273C"/>
<path fill-rule="evenodd" clip-rule="evenodd" d="M42.4142 74.0001L48.5858 67.8285L54.7574 74.0001L50.7574 78H53.5858L56.8787 74.7072C57.2692 74.3167 57.2692 73.6835 56.8787 73.293L49.2929 65.7072C48.9024 65.3167 48.2692 65.3167 47.8787 65.7072L40.2929 73.293C39.9024 73.6835 39.9024 74.3167 40.2929 74.7072L43.5857 78H46.4142L42.4142 74.0001Z" fill="#01273C"/>
<path fill-rule="evenodd" clip-rule="evenodd" d="M71.4142 74.0001L77.5858 67.8285L83.7574 74.0001L79.7574 78H82.5858L85.8787 74.7072C86.2692 74.3167 86.2692 73.6835 85.8787 73.293L78.2929 65.7072C77.9024 65.3167 77.2692 65.3167 76.8787 65.7072L69.2929 73.293C68.9024 73.6835 68.9024 74.3167 69.2929 74.7072L72.5857 78H75.4142L71.4142 74.0001Z" fill="#01273C"/>
<path fill-rule="evenodd" clip-rule="evenodd" d="M100.828 74.0001L107 67.8285L113.171 74.0001L109.171 78.0004H112L115.293 74.7072C115.683 74.3167 115.683 73.6835 115.293 73.293L107.707 65.7072C107.316 65.3167 106.683 65.3167 106.293 65.7072L98.707 73.293C98.3164 73.6835 98.3164 74.3167 98.707 74.7072L102 78.0004H104.829L100.828 74.0001Z" fill="#01273C"/>
<path fill-rule="evenodd" clip-rule="evenodd" d="M14.5858 19L11.2929 22.2929C10.9024 22.6834 10.9024 23.3166 11.2929 23.7071L18.8787 31.2929C19.2692 31.6834 19.9024 31.6834 20.2929 31.2929L27.8787 23.7071C28.2692 23.3166 28.2692 22.6834 27.8787 22.2929L24.5858 19H21.3331L25.3331 23L19.5858 28.7473L13.8385 23L17.8385 19H14.5858Z" fill="#01273C"/>
<path fill-rule="evenodd" clip-rule="evenodd" d="M43.5858 19L40.2929 22.2929C39.9024 22.6834 39.9024 23.3166 40.2929 23.7071L47.8787 31.2929C48.2692 31.6834 48.9024 31.6834 49.2929 31.2929L56.8787 23.7071C57.2692 23.3166 57.2692 22.6834 56.8787 22.2929L53.5858 19H50.7574L54.7574 23L48.5858 29.1716L42.4142 23L46.4142 19H43.5858Z" fill="#01273C"/>
<path fill-rule="evenodd" clip-rule="evenodd" d="M72.5858 19L69.2929 22.2929C68.9024 22.6834 68.9024 23.3166 69.2929 23.7071L76.8787 31.2929C77.2692 31.6834 77.9024 31.6834 78.2929 31.2929L85.8787 23.7071C86.2692 23.3166 86.2692 22.6834 85.8787 22.2929L82.5858 19H79.7574L83.7574 23L77.5858 29.1716L71.4142 23L75.4142 19H72.5858Z" fill="#01273C"/>
<path fill-rule="evenodd" clip-rule="evenodd" d="M101.586 19L98.2929 22.2929C97.9024 22.6834 97.9024 23.3166 98.2929 23.7071L105.879 31.2929C106.269 31.6834 106.902 31.6834 107.293 31.2929L114.879 23.7071C115.269 23.3166 115.269 22.6834 114.879 22.2929L111.586 19H108.757L112.757 23L106.586 29.1716L100.414 23L104.414 19H101.586Z" fill="#01273C"/>
<rect x="3" y="22" width="4" height="2" rx="1" fill="#FF9900"/>
<rect x="32" y="22" width="4" height="2" rx="1" fill="#FF9900"/>
<rect x="18" y="35" width="4" height="2" rx="1" fill="#FF9900"/>
<rect x="18" y="61" width="4" height="2" rx="1" fill="#FF9900"/>
<rect x="47" y="61" width="4" height="2" rx="1" fill="#FF9900"/>
<rect x="76" y="61" width="4" height="2" rx="1" fill="#FF9900"/>
<rect x="76" y="35" width="4" height="2" rx="1" fill="#FF9900"/>
<rect x="47" y="35" width="4" height="2" rx="1" fill="#FF9900"/>
<rect x="105" y="36" width="4" height="2" rx="1" fill="#FF9900"/>
<rect x="105" y="61" width="4" height="2" rx="1" fill="#FF9900"/>
<rect x="61" y="22" width="4" height="2" rx="1" fill="#FF9900"/>
<rect x="90" y="22" width="4" height="2" rx="1" fill="#FF9900"/>
<rect x="119" y="22" width="4" height="2" rx="1" fill="#FF9900"/>
<rect x="119" y="48" width="4" height="2" rx="1" fill="#FF9900"/>
<rect x="119" y="73" width="4" height="2" rx="1" fill="#FF9900"/>
<rect x="90" y="73" width="4" height="2" rx="1" fill="#FF9900"/>
<rect x="61" y="73" width="4" height="2" rx="1" fill="#FF9900"/>
<rect x="32" y="73" width="4" height="2" rx="1" fill="#FF9900"/>
<rect x="3" y="73" width="4" height="2" rx="1" fill="#FF9900"/>
<rect x="3" y="48" width="4" height="2" rx="1" fill="#FF9900"/>
<rect x="32" y="48" width="4" height="2" rx="1" fill="#FF9900"/>
<rect x="61" y="48" width="4" height="2" rx="1" fill="#FF9900"/>
<rect x="90" y="48" width="4" height="2" rx="1" fill="#FF9900"/>
</svg>
