<svg width="108" height="80" viewBox="0 0 108 80" fill="none" xmlns="http://www.w3.org/2000/svg">
<path d="M77.6803 54.209H58.8523C58.497 54.209 58.1549 54.0646 57.9087 53.8096C55.042 50.8621 53.322 47.4889 52.931 44.0557C52.8464 43.3169 52.8238 42.5857 52.8032 41.8788C52.7844 41.2694 52.7674 40.6919 52.7129 40.1275C52.7054 40.0506 52.7054 39.9738 52.7111 39.8988C52.7618 39.22 53.3295 38.6875 54.0231 38.6875H77.6784C78.4059 38.6875 78.9961 39.2744 78.9961 40V52.8965C78.9961 53.6202 78.4059 54.209 77.6803 54.209ZM59.42 51.584H76.3626V41.3125H55.4179C55.4236 41.4757 55.4292 41.6369 55.433 41.7982C55.4537 42.4826 55.4743 43.1276 55.5458 43.7595C55.8541 46.4632 57.1906 49.1577 59.42 51.584Z" fill="#01273C"/>
<path d="M77.6769 64.8159C77.4701 64.8159 77.2633 64.7672 77.0734 64.6697C76.2275 64.2347 75.314 63.7959 74.1993 63.2859C73.3665 62.9071 72.5093 62.5284 71.6822 62.1609C69.2272 61.0752 66.6876 59.954 64.3022 58.6021C63.8905 58.3696 63.6367 57.9327 63.6367 57.4602V52.8926C63.6367 52.167 64.2251 51.5801 64.9526 51.5801H77.6787C78.4062 51.5801 78.9946 52.167 78.9946 52.8926V63.5015C78.9946 63.959 78.7559 64.3847 78.363 64.6228C78.1524 64.7503 77.9156 64.8159 77.6769 64.8159ZM66.2684 56.6895C68.355 57.8202 70.5844 58.8064 72.7481 59.7627C73.5827 60.1321 74.4474 60.5127 75.2933 60.899C75.6692 61.0696 76.0226 61.2346 76.361 61.394V54.207H66.2665V56.6895H66.2684Z" fill="#FF9900"/>
<path d="M64.9524 58.7747C64.7287 58.7747 64.5031 58.7185 64.302 58.6041C63.1553 57.9553 62.1346 57.3047 61.1796 56.6184C59.9878 55.7634 58.8882 54.8184 57.9088 53.8096C57.5422 53.4309 57.437 52.8703 57.6438 52.3846C57.8505 51.899 58.3261 51.584 58.8543 51.584H64.9524C65.6799 51.584 66.2682 52.1709 66.2682 52.8965V57.4622C66.2682 57.9291 66.0182 58.3622 65.6141 58.5966C65.4092 58.7147 65.1798 58.7747 64.9524 58.7747ZM62.3357 54.209C62.4616 54.3028 62.5876 54.3965 62.7154 54.4884C63.0143 54.7022 63.3188 54.914 63.6346 55.1222V54.2109H62.3357V54.209Z" fill="#01273C"/>
<path d="M14.0421 36.1281C13.9838 36.1281 13.9255 36.1244 13.8673 36.1169C11.7149 35.83 9.56632 35.3931 7.47975 34.8194C5.19017 34.1912 2.9363 33.3887 0.783945 32.4343C0.308359 32.2243 0.00195312 31.7537 0.00195312 31.2343V27.1055C0.00195312 26.3799 0.590327 25.793 1.31781 25.793H14.0421C14.7696 25.793 15.3579 26.3799 15.3579 27.1055V34.8156C15.3579 35.1944 15.1944 35.5544 14.9087 35.8038C14.6681 36.0138 14.3598 36.1281 14.0421 36.1281ZM2.63366 30.3718C4.42886 31.1274 6.28985 31.7706 8.17903 32.2881C9.66971 32.6987 11.1942 33.0343 12.7281 33.2912V28.418H2.63366V30.3718Z" fill="#01273C"/>
<path d="M77.6787 41.3125H64.9526C64.2251 41.3125 63.6367 40.7256 63.6367 40V27.1035C63.6367 26.3779 64.2251 25.791 64.9526 25.791H77.6787C78.4062 25.791 78.9946 26.3779 78.9946 27.1035V29.4023C78.9946 30.128 78.4062 30.7148 77.6787 30.7148C76.9513 30.7148 76.3629 30.128 76.3629 29.4023V28.4161H66.2684V38.6875H76.3629V37.7968C76.3629 37.0712 76.9513 36.4843 77.6787 36.4843C78.4062 36.4843 78.9946 37.0712 78.9946 37.7968V40C78.9946 40.7256 78.4043 41.3125 77.6787 41.3125Z" fill="#01273C"/>
<path d="M77.6786 34.8643C77.5922 34.8643 77.5057 34.8568 77.4211 34.84C77.3365 34.8231 77.2538 34.7968 77.1749 34.765C77.0959 34.7312 77.0188 34.69 76.9474 34.6431C76.876 34.5962 76.8083 34.54 76.7482 34.48C76.6861 34.42 76.6316 34.3525 76.5846 34.2812C76.5376 34.21 76.4963 34.1331 76.4624 34.0543C76.4305 33.9756 76.4041 33.8931 76.3872 33.8087C76.3703 33.7243 76.3628 33.6381 76.3628 33.5518C76.3628 33.4674 76.3703 33.3812 76.3872 33.2949C76.4041 33.2124 76.4305 33.1299 76.4624 33.0512C76.4963 32.9706 76.5376 32.8956 76.5846 32.8243C76.6316 32.7512 76.6861 32.6837 76.7482 32.6237C76.8083 32.5637 76.876 32.5093 76.9474 32.4605C77.0188 32.4137 77.0959 32.3724 77.1749 32.3405C77.2538 32.3068 77.3365 32.2824 77.4211 32.2655C77.5903 32.2318 77.7651 32.2318 77.9362 32.2655C78.0189 32.2824 78.1016 32.3068 78.1806 32.3405C78.2614 32.3724 78.3366 32.4137 78.408 32.4605C78.4813 32.5093 78.5471 32.5637 78.6091 32.6237C78.6693 32.6837 78.7238 32.7512 78.7727 32.8243C78.8197 32.8956 78.861 32.9706 78.893 33.0512C78.9249 33.1299 78.9513 33.2124 78.9682 33.2949C78.9851 33.3812 78.9945 33.4674 78.9945 33.5518C78.9945 33.6381 78.9851 33.7243 78.9682 33.8087C78.9513 33.8931 78.9249 33.9756 78.893 34.0543C78.861 34.1331 78.8197 34.21 78.7727 34.2812C78.7238 34.3525 78.6693 34.42 78.6091 34.48C78.5471 34.54 78.4813 34.5962 78.408 34.6431C78.3366 34.69 78.2614 34.7312 78.1806 34.765C78.1016 34.7968 78.0189 34.8231 77.9362 34.84C77.8497 34.8568 77.7632 34.8643 77.6786 34.8643Z" fill="#FF9900"/>
<path d="M64.9523 41.3143H54.0233C53.3296 41.3143 52.7619 40.778 52.7112 40.0993C52.6623 39.5818 52.5852 39.1374 52.4781 38.7399C51.4592 34.9748 46.9684 32.9573 43.0603 32.9104C42.0058 32.901 40.9098 32.9817 39.7011 33.1673C39.3214 33.2254 38.9361 33.1167 38.6447 32.8673C38.3533 32.6179 38.186 32.2542 38.186 31.8716V27.1072C38.186 26.3816 38.7744 25.7947 39.5019 25.7947H64.9542C65.6817 25.7947 66.2701 26.3816 66.2701 27.1072V39.9999C66.2682 40.7237 65.6779 41.3143 64.9523 41.3143ZM55.1643 38.6893H63.6365V28.4178H40.814V30.3829C41.5997 30.3079 42.3516 30.276 43.0904 30.2854C47.8369 30.3416 53.5928 32.7979 55.0158 38.0536C55.0722 38.258 55.1211 38.4699 55.1643 38.6893Z" fill="#01273C"/>
<path d="M20.1852 36.5387C18.093 36.5387 15.9858 36.3981 13.871 36.1149C13.2168 36.0268 12.73 35.4718 12.73 34.8137V27.1035C12.73 26.3779 13.3184 25.791 14.0458 25.791H39.4982C40.2257 25.791 40.814 26.3779 40.814 27.1035V31.868C40.814 32.5167 40.3403 33.0661 39.6974 33.1655C37.75 33.4636 35.7574 33.9961 33.8287 34.5099C32.5956 34.838 31.3211 35.1774 30.0485 35.4624C26.8265 36.1806 23.5256 36.5387 20.1852 36.5387ZM15.3598 33.6511C20.1551 34.1705 24.8997 33.9174 29.477 32.8993C30.697 32.6274 31.9452 32.2955 33.152 31.973C34.7912 31.5361 36.4755 31.088 38.1842 30.7636V28.4161H15.3598V33.6511Z" fill="#01273C"/>
<path d="M14.044 15.5215H1.31781C0.590327 15.5215 0.00195312 14.9346 0.00195312 14.209V1.31252C0.00195312 0.586884 0.590327 0 1.31781 0H14.044C14.7715 0 15.3598 0.586884 15.3598 1.31252V14.2071C15.3598 14.9327 14.7715 15.5215 14.044 15.5215ZM2.63366 12.8965H12.7281V2.62504H2.63366V12.8965Z" fill="#FF9900"/>
<path d="M39.4981 15.5216H14.0439C13.3164 15.5216 12.728 14.9347 12.728 14.2091V1.31447C12.728 0.588837 13.3164 0.00195312 14.0439 0.00195312H39.4981C40.2256 0.00195312 40.814 0.588837 40.814 1.31447V14.2091C40.814 14.9347 40.2256 15.5216 39.4981 15.5216ZM15.3597 12.8965H38.1822V2.62699H15.3597V12.8965Z" fill="#01273C"/>
<path d="M26.772 28.416H1.31781C0.590327 28.416 0.00195312 27.8291 0.00195312 27.1035V19.189C0.00195312 18.4633 0.590327 17.8764 1.31781 17.8764C2.04528 17.8764 2.63366 18.4633 2.63366 19.189V25.7909H25.4562V15.5214H1.31781C0.590327 15.5214 0.00195312 14.9345 0.00195312 14.2089C0.00195312 13.4832 0.590327 12.8964 1.31781 12.8964H26.772C27.4995 12.8964 28.0879 13.4832 28.0879 14.2089V27.1035C28.0879 27.8291 27.4976 28.416 26.772 28.416Z" fill="#01273C"/>
<path d="M77.6783 28.4161H52.226C51.4985 28.4161 50.9102 27.8292 50.9102 27.1036V14.209C50.9102 13.4834 51.4985 12.8965 52.226 12.8965H77.6802C78.4077 12.8965 78.9961 13.4834 78.9961 14.209V27.1036C78.9942 27.8292 78.4058 28.4161 77.6783 28.4161ZM53.5419 25.7911H76.3644V15.5215H53.5419V25.7911Z" fill="#01273C"/>
<path d="M52.2261 28.4161H26.7719C26.0444 28.4161 25.4561 27.8292 25.4561 27.1036V14.209C25.4561 13.4834 26.0444 12.8965 26.7719 12.8965H52.2261C52.9536 12.8965 53.542 13.4834 53.542 14.209V27.1036C53.542 27.8292 52.9517 28.4161 52.2261 28.4161ZM28.0878 25.7911H50.9103V15.5215H28.0878V25.7911Z" fill="#01273C"/>
<path d="M77.6802 79.9997C76.9527 79.9997 76.3643 79.4128 76.3643 78.6871V65.8601C76.3624 65.8376 76.3624 65.8132 76.3624 65.7907V64.3094C75.7139 63.9888 75.0109 63.655 74.2007 63.2857C73.3679 62.9069 72.5108 62.5281 71.6836 62.1606C69.2286 61.075 66.689 59.9537 64.3036 58.6018C63.1588 57.9531 62.1362 57.3043 61.1813 56.6181C59.9895 55.763 58.8898 54.818 57.9104 53.8093C55.0456 50.8636 53.3256 47.4904 52.9346 44.0554C52.85 43.3166 52.8275 42.5853 52.8068 41.8784C52.788 41.2691 52.7711 40.6916 52.7166 40.1272C52.647 39.4053 53.1771 38.764 53.9008 38.6946C54.6283 38.6234 55.2675 39.154 55.337 39.8759C55.399 40.5266 55.4197 41.1734 55.4385 41.7978C55.4592 42.4822 55.4799 43.1272 55.5513 43.7591C55.8765 46.611 57.3465 49.4554 59.8034 51.9811C60.6756 52.8792 61.6569 53.723 62.7208 54.4861C63.6006 55.118 64.5442 55.718 65.6063 56.3199C67.879 57.6081 70.3565 58.7031 72.7532 59.7625C73.5879 60.1319 74.4526 60.5125 75.2985 60.8987C76.4527 61.4256 77.402 61.8813 78.2855 62.3369C78.7235 62.5619 78.9979 63.0119 78.9979 63.5032V65.7213C78.9998 65.7438 78.9998 65.7682 78.9998 65.7907V78.6871C78.996 79.4109 78.4058 79.9997 77.6802 79.9997Z" fill="#FF9900"/>
<path d="M70.15 80.0001H1.31585C0.588374 80.0001 0 79.4132 0 78.6876V65.7911C0 65.7667 -3.15474e-07 65.7442 0.00187947 65.7217V52.9659C-3.15474e-07 52.9434 0 52.919 0 52.8965V40.0001C0 39.9757 -3.15474e-07 39.9532 0.00187947 39.9307V31.2343C0.00187947 30.7899 0.227455 30.3756 0.601533 30.1337C0.975611 29.8918 1.44556 29.8543 1.85347 30.0343C3.8874 30.9362 6.01532 31.6937 8.17896 32.2881C10.1452 32.8281 12.1679 33.2406 14.1943 33.5125C14.2018 33.5125 14.2112 33.5144 14.2187 33.5162C19.4032 34.2081 24.5369 34.0019 29.477 32.9031C30.697 32.6312 31.9451 32.2993 33.152 31.9768C35.1483 31.4443 37.2104 30.8949 39.2989 30.5743C40.6523 30.3662 41.893 30.2724 43.0904 30.2874C47.8369 30.3437 53.5928 32.8 55.0158 38.0557C55.1643 38.6032 55.2677 39.2013 55.3316 39.8782C55.3993 40.6001 54.8673 41.2395 54.1436 41.307C53.418 41.3745 52.7788 40.8438 52.7112 40.122C52.6623 39.5951 52.5852 39.1432 52.4743 38.7401C51.4555 34.975 46.9646 32.9575 43.0566 32.9106C42.002 32.9012 40.9061 32.9818 39.6974 33.1675C37.7499 33.4675 35.7555 33.9981 33.8287 34.5119C32.5955 34.84 31.321 35.1794 30.0484 35.4644C24.8113 36.6288 19.3769 36.85 13.8916 36.1206C13.8841 36.1188 13.8747 36.1188 13.8672 36.1169C11.7148 35.83 9.56625 35.3931 7.47968 34.8194C5.83862 34.3694 4.21449 33.8294 2.63358 33.2069V40.0001C2.63358 40.0245 2.63358 40.047 2.6317 40.0695V52.8272C2.63358 52.8497 2.63358 52.874 2.63358 52.8965V65.7911C2.63358 65.8155 2.63358 65.838 2.6317 65.8605V77.375H70.1481C70.8756 77.375 71.4639 77.9619 71.4639 78.6876C71.4639 79.4132 70.8774 80.0001 70.15 80.0001Z" fill="#FF9900"/>
<path d="M88.4111 23.2289H95.8938V27.5727H94.5753C93.7474 27.5727 93.0739 28.2516 93.0739 29.0869V39.7013C93.0739 42.0718 94.9857 44 97.3352 44C99.6847 44 101.597 42.0718 101.597 39.7013V29.0869C101.597 28.2516 100.923 27.5727 100.095 27.5727H98.0381V23.2289H105.589C106.413 23.2289 107.17 22.8121 107.616 22.1134C108.061 21.4148 108.123 20.5471 107.782 19.7923L99.4997 1.42398C99.1032 0.545065 98.2628 0 97.3058 0C96.3782 0 95.5489 0.522532 95.142 1.36337L86.2465 19.7316C85.8793 20.4894 85.9247 21.3696 86.3672 22.0852C86.8106 22.8007 87.5749 23.2289 88.4111 23.2289ZM99.4522 39.7013C99.4522 40.8788 98.5022 41.8366 97.3351 41.8366C96.168 41.8366 95.218 40.8788 95.218 39.7013V38.9604H99.4521V39.7013H99.4522ZM99.4522 36.797H95.2181V29.7362H99.4522V36.797ZM88.1731 20.6809L97.0685 2.31273C97.1167 2.21275 97.1963 2.16342 97.3058 2.16342C97.384 2.16342 97.4894 2.19022 97.5481 2.31973L105.831 20.6879C105.88 20.7977 105.847 20.8866 105.813 20.9429C105.776 20.9992 105.709 21.0654 105.589 21.0654H98.0381V16.4498C98.0381 15.8525 97.5579 15.3681 96.966 15.3681C96.3741 15.3681 95.8939 15.8527 95.8939 16.4498V21.0654H88.4112C88.2898 21.0654 88.2221 20.9964 88.1865 20.9401C88.1507 20.8823 88.12 20.7909 88.1731 20.6809Z" fill="#01273C"/>
</svg>
