<svg width="80" height="80" viewBox="0 0 80 80" fill="none" xmlns="http://www.w3.org/2000/svg">
<path d="M13.7974 16.7635C13.4205 16.7635 13.0537 16.6398 12.7889 16.4254C12.5219 16.2093 12.3691 15.9124 12.3691 15.6089C12.3691 15.533 12.3793 15.4572 12.3977 15.3829C12.416 15.3087 12.4445 15.2361 12.4792 15.1668C12.5158 15.0976 12.5586 15.0299 12.6116 14.9673C12.6625 14.9046 12.7216 14.8452 12.7889 14.7924C12.8541 14.7396 12.9274 14.6901 13.0048 14.6489C13.0822 14.6077 13.1658 14.5714 13.2514 14.5417C13.3369 14.5137 13.4266 14.4922 13.5183 14.4774C13.7016 14.446 13.8911 14.446 14.0745 14.4774C14.1662 14.4922 14.2558 14.5137 14.3414 14.5417C14.427 14.5714 14.5105 14.6077 14.5879 14.6489C14.6653 14.6901 14.7387 14.7396 14.8039 14.7924C14.8711 14.8452 14.9302 14.9046 14.9811 14.9673C15.0341 15.0299 15.0769 15.0976 15.1136 15.1668C15.1482 15.2361 15.1767 15.3087 15.1951 15.3829C15.2134 15.4572 15.2216 15.533 15.2216 15.6089C15.2216 15.9124 15.0708 16.2093 14.8039 16.4254C14.7387 16.4782 14.6653 16.526 14.5879 16.5689C14.5105 16.6101 14.427 16.6464 14.3414 16.6745C14.2558 16.7042 14.1662 16.7256 14.0745 16.7405C13.9828 16.7553 13.8891 16.7635 13.7974 16.7635Z" fill="#01273C"/>
<path d="M78.5757 80H35.2801C34.4916 80 33.8539 79.4838 33.8539 78.8454V27.2875H13.7953C13.0069 27.2875 12.3691 26.7712 12.3691 26.1328V20.838C12.3691 20.1996 13.0069 19.6833 13.7953 19.6833C14.5838 19.6833 15.2216 20.1996 15.2216 20.838V24.9782H35.2801C36.0686 24.9782 36.7063 25.4945 36.7063 26.1328V77.6908H77.1474V64.0858C77.1474 63.4475 77.7852 62.9312 78.5736 62.9312C79.3621 62.9312 79.9998 63.4475 79.9998 64.0858V78.8454C80.0019 79.4838 79.3621 80 78.5757 80Z" fill="#01273C"/>
<path d="M78.5756 61.605C78.4819 61.605 78.3882 61.5968 78.2965 61.5819C78.2048 61.5671 78.1152 61.5456 78.0296 61.516C77.944 61.4879 77.8605 61.4516 77.7831 61.4104C77.7056 61.3675 77.6323 61.3197 77.5671 61.2669C77.4999 61.2141 77.4408 61.1547 77.3898 61.0904C77.3369 61.0277 77.2941 60.9617 77.2574 60.8925C77.2228 60.8215 77.1942 60.7489 77.1759 60.6764C77.1576 60.6021 77.1494 60.5263 77.1494 60.4504C77.1494 60.3745 77.1576 60.2986 77.1759 60.2244C77.1942 60.1502 77.2228 60.0776 77.2574 60.0083C77.2941 59.939 77.3369 59.8714 77.3898 59.8087C77.4408 59.7461 77.4999 59.6867 77.5671 59.6339C77.6323 59.5795 77.7056 59.5316 77.7831 59.4904C77.8605 59.4492 77.944 59.4129 78.0296 59.3832C78.1152 59.3551 78.2048 59.332 78.2965 59.3172C78.4799 59.2875 78.6693 59.2875 78.8527 59.3172C78.9444 59.332 79.034 59.3551 79.1196 59.3832C79.2052 59.4129 79.2887 59.4492 79.3661 59.4904C79.4436 59.5316 79.5169 59.5795 79.5821 59.6339C79.6494 59.6867 79.7084 59.7461 79.7594 59.8087C79.8124 59.8714 79.8551 59.939 79.8918 60.0083C79.9264 60.0776 79.955 60.1502 79.9733 60.2244C79.9916 60.2986 79.9998 60.3745 79.9998 60.4504C79.9998 60.5263 79.9916 60.6021 79.9733 60.6764C79.955 60.7489 79.9264 60.8215 79.8918 60.8925C79.8551 60.9617 79.8124 61.0277 79.7594 61.0904C79.7084 61.1547 79.6494 61.2141 79.5821 61.2669C79.5169 61.3197 79.4436 61.3675 79.3661 61.4104C79.2887 61.4516 79.2052 61.4879 79.1196 61.516C79.034 61.5456 78.9444 61.5671 78.8527 61.5819C78.761 61.5968 78.6673 61.605 78.5756 61.605Z" fill="#01273C"/>
<path d="M78.5757 57.1827C77.7872 57.1827 77.1495 56.6664 77.1495 56.028V2.30928H15.2216V12.0049C15.2216 12.6433 14.5838 13.1596 13.7953 13.1596C13.0069 13.1596 12.3691 12.6433 12.3691 12.0049V1.15464C12.3691 0.516289 13.0069 0 13.7953 0H78.5736C79.3621 0 79.9998 0.516289 79.9998 1.15464V56.028C80.0019 56.6664 79.3621 57.1827 78.5757 57.1827Z" fill="#01273C"/>
<path d="M14.7389 41.1777H8.70404C7.91555 41.1777 7.27783 40.6614 7.27783 40.0231V35.1373C7.27783 34.499 7.91555 33.9827 8.70404 33.9827H14.7389C15.5274 33.9827 16.1651 34.499 16.1651 35.1373V40.0231C16.1651 40.6614 15.5274 41.1777 14.7389 41.1777ZM10.1302 38.8684H13.3127V36.2919H10.1302V38.8684Z" fill="#FF9900"/>
<path d="M28.0046 41.1777H21.9697C21.1812 41.1777 20.5435 40.6614 20.5435 40.0231V35.1373C20.5435 34.499 21.1812 33.9827 21.9697 33.9827H28.0046C28.793 33.9827 29.4308 34.499 29.4308 35.1373V40.0231C29.4308 40.6614 28.791 41.1777 28.0046 41.1777ZM23.3959 38.8684H26.5783V36.2919H23.3959V38.8684Z" fill="#FF9900"/>
<path d="M14.7389 51.1175H8.70404C7.91555 51.1175 7.27783 50.6012 7.27783 49.9629V45.0771C7.27783 44.4388 7.91555 43.9225 8.70404 43.9225H14.7389C15.5274 43.9225 16.1651 44.4388 16.1651 45.0771V49.9629C16.1651 50.5996 15.5274 51.1175 14.7389 51.1175ZM10.1302 48.8083H13.3127V46.2318H10.1302V48.8083Z" fill="#FF9900"/>
<path d="M28.0046 51.1174H21.9697C21.1812 51.1174 20.5435 50.6011 20.5435 49.9628V45.077C20.5435 44.4387 21.1812 43.9224 21.9697 43.9224H28.0046C28.793 43.9224 29.4308 44.4387 29.4308 45.077V49.9628C29.4308 50.5995 28.791 51.1174 28.0046 51.1174ZM23.3959 48.8081H26.5783V46.2316H23.3959V48.8081Z" fill="#01273C"/>
<path d="M14.7389 61.0556H8.70404C7.91555 61.0556 7.27783 60.5394 7.27783 59.901V55.0152C7.27783 54.3769 7.91555 53.8606 8.70404 53.8606H14.7389C15.5274 53.8606 16.1651 54.3769 16.1651 55.0152V59.901C16.1651 60.5394 15.5274 61.0556 14.7389 61.0556ZM10.1302 58.7464H13.3127V56.1699H10.1302V58.7464Z" fill="#FF9900"/>
<path d="M28.0046 61.0556H21.9697C21.1812 61.0556 20.5435 60.5394 20.5435 59.901V55.0152C20.5435 54.3769 21.1812 53.8606 21.9697 53.8606H28.0046C28.793 53.8606 29.4308 54.3769 29.4308 55.0152V59.901C29.4308 60.5394 28.791 61.0556 28.0046 61.0556ZM23.3959 58.7464H26.5783V56.1699H23.3959V58.7464Z" fill="#FF9900"/>
<path d="M14.7389 70.9955H8.70404C7.91555 70.9955 7.27783 70.4792 7.27783 69.8408V64.9551C7.27783 64.3167 7.91555 63.8004 8.70404 63.8004H14.7389C15.5274 63.8004 16.1651 64.3167 16.1651 64.9551V69.8408C16.1651 70.4775 15.5274 70.9955 14.7389 70.9955ZM10.1302 68.6862H13.3127V66.1097H10.1302V68.6862Z" fill="#01273C"/>
<path d="M28.0046 70.9953H21.9697C21.1812 70.9953 20.5435 70.4791 20.5435 69.8407V64.9549C20.5435 64.3166 21.1812 63.8003 21.9697 63.8003H28.0046C28.793 63.8003 29.4308 64.3166 29.4308 64.9549V69.8407C29.4308 70.4774 28.791 70.9953 28.0046 70.9953ZM23.3959 68.6861H26.5783V66.1096H23.3959V68.6861Z" fill="#01273C"/>
<path d="M50.618 51.8928H44.791C44.0025 51.8928 43.3647 51.3765 43.3647 50.7381V46.0206C43.3647 45.3823 44.0025 44.866 44.791 44.866H50.618C51.4065 44.866 52.0442 45.3823 52.0442 46.0206V50.7381C52.0442 51.3765 51.4045 51.8928 50.618 51.8928ZM46.2172 49.5835H49.1918V47.1752H46.2172V49.5835Z" fill="#01273C"/>
<path d="M50.618 62.7299H44.791C44.0025 62.7299 43.3647 62.2136 43.3647 61.5753V56.8578C43.3647 56.2194 44.0025 55.7031 44.791 55.7031H50.618C51.4065 55.7031 52.0442 56.2194 52.0442 56.8578V61.5753C52.0442 62.2136 51.4045 62.7299 50.618 62.7299ZM46.2172 60.4206H49.1918V58.0124H46.2172V60.4206Z" fill="#01273C"/>
<path d="M50.618 73.567H44.791C44.0025 73.567 43.3647 73.0507 43.3647 72.4123V67.6948C43.3647 67.0564 44.0025 66.5402 44.791 66.5402H50.618C51.4065 66.5402 52.0442 67.0564 52.0442 67.6948V72.4123C52.0442 73.049 51.4045 73.567 50.618 73.567ZM46.2172 71.2577H49.1918V68.8494H46.2172V71.2577Z" fill="#FF9900"/>
<path d="M28.1532 11.8252H22.1367C21.3482 11.8252 20.7104 11.3089 20.7104 10.6706V5.79966C20.7104 5.16131 21.3482 4.64502 22.1367 4.64502H28.1532C28.9417 4.64502 29.5794 5.16131 29.5794 5.79966V10.6706C29.5794 11.3089 28.9417 11.8252 28.1532 11.8252ZM23.5629 9.51595H26.727V6.9543H23.5629V9.51595Z" fill="#FF9900"/>
<path d="M42.4706 11.8252H36.454C35.6656 11.8252 35.0278 11.3089 35.0278 10.6706V5.79966C35.0278 5.16131 35.6656 4.64502 36.454 4.64502H42.4706C43.2591 4.64502 43.8968 5.16131 43.8968 5.79966V10.6706C43.8968 11.3089 43.2591 11.8252 42.4706 11.8252ZM37.8802 9.51595H41.0444V6.9543H37.8802V9.51595Z" fill="#FF9900"/>
<path d="M56.7855 11.8252H50.769C49.9805 11.8252 49.3428 11.3089 49.3428 10.6706V5.79966C49.3428 5.16131 49.9805 4.64502 50.769 4.64502H56.7855C57.574 4.64502 58.2117 5.16131 58.2117 5.79966V10.6706C58.2117 11.3089 57.574 11.8252 56.7855 11.8252ZM52.1952 9.51595H55.3593V6.9543H52.1952V9.51595Z" fill="#01273C"/>
<path d="M72.0458 11.8252H66.0292C65.2407 11.8252 64.603 11.3089 64.603 10.6706V5.79966C64.603 5.16131 65.2407 4.64502 66.0292 4.64502H72.0458C72.8343 4.64502 73.472 5.16131 73.472 5.79966V10.6706C73.472 11.3089 72.8322 11.8252 72.0458 11.8252ZM67.4554 9.51595H70.6196V6.9543H67.4554V9.51595Z" fill="#FF9900"/>
<path d="M28.1532 21.9925H22.1367C21.3482 21.9925 20.7104 21.4762 20.7104 20.8378V15.9669C20.7104 15.3285 21.3482 14.8123 22.1367 14.8123H28.1532C28.9417 14.8123 29.5794 15.3285 29.5794 15.9669V20.8378C29.5794 21.4762 28.9417 21.9925 28.1532 21.9925ZM23.5629 19.6832H26.727V17.1215H23.5629V19.6832Z" fill="#01273C"/>
<path d="M42.4706 21.9925H36.454C35.6656 21.9925 35.0278 21.4762 35.0278 20.8378V15.9669C35.0278 15.3285 35.6656 14.8123 36.454 14.8123H42.4706C43.2591 14.8123 43.8968 15.3285 43.8968 15.9669V20.8378C43.8968 21.4762 43.2591 21.9925 42.4706 21.9925ZM37.8802 19.6832H41.0444V17.1215H37.8802V19.6832Z" fill="#01273C"/>
<path d="M56.7855 21.9925H50.769C49.9805 21.9925 49.3428 21.4762 49.3428 20.8378V15.9669C49.3428 15.3285 49.9805 14.8123 50.769 14.8123H56.7855C57.574 14.8123 58.2117 15.3285 58.2117 15.9669V20.8378C58.2117 21.4762 57.574 21.9925 56.7855 21.9925ZM52.1952 19.6832H55.3593V17.1215H52.1952V19.6832Z" fill="#01273C"/>
<path d="M72.0458 21.9925H66.0292C65.2407 21.9925 64.603 21.4762 64.603 20.8378V15.9669C64.603 15.3285 65.2407 14.8123 66.0292 14.8123H72.0458C72.8343 14.8123 73.472 15.3285 73.472 15.9669V20.8378C73.472 21.4762 72.8322 21.9925 72.0458 21.9925ZM67.4554 19.6832H70.6196V17.1215H67.4554V19.6832Z" fill="#01273C"/>
<path d="M42.4683 32.1599H40.2393C39.4509 32.1599 38.8131 31.6436 38.8131 31.0052C38.8131 30.3669 39.4509 29.8506 40.2393 29.8506H41.0421V27.2873H40.0825C39.294 27.2873 38.6562 26.771 38.6562 26.1327C38.6562 25.4943 39.294 24.978 40.0825 24.978H42.4683C43.2568 24.978 43.8945 25.4943 43.8945 26.1327V31.0052C43.8945 31.6436 43.2568 32.1599 42.4683 32.1599Z" fill="#01273C"/>
<path d="M56.7855 32.1599H50.769C49.9805 32.1599 49.3428 31.6437 49.3428 31.0053V26.1344C49.3428 25.496 49.9805 24.9797 50.769 24.9797H56.7855C57.574 24.9797 58.2117 25.496 58.2117 26.1344V31.0053C58.2117 31.642 57.574 32.1599 56.7855 32.1599ZM52.1952 29.8507H55.3593V27.289H52.1952V29.8507Z" fill="#01273C"/>
<path d="M72.0458 32.1599H66.0292C65.2407 32.1599 64.603 31.6437 64.603 31.0053V26.1344C64.603 25.496 65.2407 24.9797 66.0292 24.9797H72.0458C72.8343 24.9797 73.472 25.496 73.472 26.1344V31.0053C73.472 31.642 72.8322 32.1599 72.0458 32.1599ZM67.4554 29.8507H70.6196V27.289H67.4554V29.8507Z" fill="#01273C"/>
<path d="M72.0458 42.3257H66.0292C65.2407 42.3257 64.603 41.8094 64.603 41.1711V36.3001C64.603 35.6618 65.2407 35.1455 66.0292 35.1455H72.0458C72.8343 35.1455 73.472 35.6618 73.472 36.3001V41.1711C73.472 41.8094 72.8322 42.3257 72.0458 42.3257ZM67.4554 40.0164H70.6196V37.4548H67.4554V40.0164Z" fill="#01273C"/>
<path d="M72.0458 52.4932H66.0292C65.2407 52.4932 64.603 51.9769 64.603 51.3386V46.4676C64.603 45.8293 65.2407 45.313 66.0292 45.313H72.0458C72.8343 45.313 73.472 45.8293 73.472 46.4676V51.3386C73.472 51.9769 72.8322 52.4932 72.0458 52.4932ZM67.4554 50.1839H70.6196V47.6223H67.4554V50.1839Z" fill="#FF9900"/>
<path d="M72.0458 62.6607H66.0292C65.2407 62.6607 64.603 62.1444 64.603 61.506V56.6351C64.603 55.9968 65.2407 55.4805 66.0292 55.4805H72.0458C72.8343 55.4805 73.472 55.9968 73.472 56.6351V61.506C73.472 62.1427 72.8322 62.6607 72.0458 62.6607ZM67.4554 60.3514H70.6196V57.7897H67.4554V60.3514Z" fill="#01273C"/>
<path d="M72.0458 72.8264H66.0292C65.2407 72.8264 64.603 72.3102 64.603 71.6718V66.8009C64.603 66.1625 65.2407 65.6462 66.0292 65.6462H72.0458C72.8343 65.6462 73.472 66.1625 73.472 66.8009V71.6718C73.472 72.3102 72.8322 72.8264 72.0458 72.8264ZM67.4554 70.5172H70.6196V67.9555H67.4554V70.5172Z" fill="#01273C"/>
<path d="M60.1288 80.0001H35.2802C34.4917 80.0001 33.854 79.4838 33.854 78.8455V39.5877C33.854 38.9494 34.4917 38.4331 35.2802 38.4331H60.1268C60.9153 38.4331 61.553 38.9494 61.553 39.5877C61.553 40.2261 60.9153 40.7424 60.1268 40.7424H36.7064V77.6908H58.7006V44.4884C58.7006 43.85 59.3383 43.3337 60.1268 43.3337C60.9153 43.3337 61.553 43.85 61.553 44.4884V78.8455C61.555 79.4838 60.9153 80.0001 60.1288 80.0001Z" fill="#FF9900"/>
<path d="M35.2803 80H1.42621C0.637718 80 0 79.4837 0 78.8454V26.1328C0 25.4944 0.637718 24.9781 1.42621 24.9781H35.2803C36.0688 24.9781 36.7065 25.4944 36.7065 26.1328V78.8454C36.7065 79.4837 36.0688 80 35.2803 80ZM2.85241 77.6907H33.8541V27.2874H2.85241V77.6907Z" fill="#01273C"/>
</svg>
