<svg width="95" height="80" viewBox="0 0 95 80" fill="none" xmlns="http://www.w3.org/2000/svg">
<path d="M21.0763 69.9219C20.3182 69.9219 19.7052 69.2947 19.7052 68.5193C19.7052 63.7347 15.9012 59.8437 11.2237 59.8437C6.54619 59.8437 2.74227 63.7347 2.74227 68.5193C2.74227 69.2947 2.12918 69.9219 1.37113 69.9219C0.613093 69.9219 0 69.2947 0 68.5193V11.4807C0 5.14927 5.03402 0 11.2237 0C17.4134 0 22.4474 5.14927 22.4474 11.4807V68.5193C22.4474 69.2947 21.8343 69.9219 21.0763 69.9219ZM11.2237 57.0387C14.6065 57.0387 17.6465 58.5774 19.7052 61.0078V11.4807C19.7052 6.69605 15.9012 2.80505 11.2237 2.80505C6.54619 2.80505 2.74227 6.69605 2.74227 11.4807V61.0078C4.80093 58.5774 7.84093 57.0387 11.2237 57.0387Z" fill="#01273C"/>
<path d="M93.6289 80C92.8708 80 92.2577 79.3729 92.2577 78.5975V12.8832H22.4474V68.5193C22.4474 69.2947 21.8343 69.9218 21.0763 69.9218C20.3182 69.9218 19.7052 69.2947 19.7052 68.5193C19.7052 63.7347 15.9012 59.8437 11.2237 59.8437C6.54619 59.8437 2.74227 63.7347 2.74227 68.5193C2.74227 73.3039 6.54619 77.1949 11.2237 77.1949H85.7879C86.546 77.1949 87.1591 77.8221 87.1591 78.5975C87.1591 79.3729 86.546 80 85.7879 80H11.2237C5.03598 80 0 74.8507 0 68.5193C0 62.1879 5.03598 57.0387 11.2237 57.0387C14.6065 57.0387 17.6465 58.5774 19.7052 61.0078V11.4806C19.7052 10.7053 20.3182 10.0781 21.0763 10.0781H93.6289C94.3869 10.0781 95 10.7053 95 11.4806V78.5975C95 79.3729 94.3869 80 93.6289 80Z" fill="#01273C"/>
<path d="M41.8785 35.9286H28.4746C27.7166 35.9286 27.1035 35.3014 27.1035 34.526V20.8154C27.1035 20.04 27.7166 19.4128 28.4746 19.4128H41.8785C42.6365 19.4128 43.2496 20.04 43.2496 20.8154V34.526C43.2496 35.3014 42.6345 35.9286 41.8785 35.9286ZM29.8458 33.1235H40.5073V22.2179H29.8458V33.1235Z" fill="#01273C"/>
<path d="M53.4802 69.9999H43.3279C42.5699 69.9999 41.9568 69.3728 41.9568 68.5974C41.9568 67.822 42.5699 67.1949 43.3279 67.1949H52.1091V44.4219H29.8458V67.1949H31.6753C32.4333 67.1949 33.0464 67.822 33.0464 68.5974C33.0464 69.3728 32.4333 69.9999 31.6753 69.9999H28.4746C27.7166 69.9999 27.1035 69.3728 27.1035 68.5974V43.0193C27.1035 42.244 27.7166 41.6168 28.4746 41.6168H53.4802C54.2383 41.6168 54.8514 42.244 54.8514 43.0193V68.5974C54.8514 69.3708 54.2383 69.9999 53.4802 69.9999Z" fill="#FF9900"/>
<path d="M36.8526 70.0001C36.4902 70.0001 36.1376 69.8498 35.883 69.5894C35.8203 69.5233 35.7615 69.4531 35.7126 69.375C35.6636 69.2988 35.6205 69.2187 35.5853 69.1326C35.552 69.0484 35.5265 68.9602 35.5089 68.8701C35.4893 68.7799 35.4814 68.6878 35.4814 68.5976C35.4814 68.5054 35.4893 68.4133 35.5089 68.3231C35.5265 68.2329 35.552 68.1448 35.5853 68.0606C35.6205 67.9765 35.6636 67.8943 35.7126 67.8182C35.7615 67.742 35.8203 67.6699 35.883 67.6058C36.1376 67.3433 36.4902 67.1951 36.8526 67.1951C37.213 67.1951 37.5656 67.3433 37.8222 67.6058C37.8848 67.6699 37.9417 67.742 37.9926 67.8182C38.0415 67.8943 38.0846 67.9765 38.1179 68.0606C38.1532 68.1448 38.1787 68.2329 38.1963 68.3231C38.2139 68.4133 38.2237 68.5054 38.2237 68.5976C38.2237 68.6878 38.2139 68.7799 38.1963 68.8701C38.1787 68.9602 38.1532 69.0484 38.1179 69.1326C38.0846 69.2187 38.0415 69.2988 37.9926 69.375C37.9417 69.4531 37.8848 69.5233 37.8222 69.5894C37.5656 69.8498 37.213 70.0001 36.8526 70.0001Z" fill="#FF9900"/>
<path d="M82.8871 35.9286H47.5C46.742 35.9286 46.1289 35.3014 46.1289 34.526V20.8154C46.1289 20.04 46.742 19.4128 47.5 19.4128H64.8155C65.5735 19.4128 66.1866 20.04 66.1866 20.8154C66.1866 21.5908 65.5735 22.2179 64.8155 22.2179H48.8712V33.1235H81.5159V22.2179H75.1852C74.4272 22.2179 73.8141 21.5908 73.8141 20.8154C73.8141 20.04 74.4272 19.4128 75.1852 19.4128H82.8871C83.6451 19.4128 84.2582 20.04 84.2582 20.8154V34.526C84.2582 35.3014 83.6451 35.9286 82.8871 35.9286Z" fill="#FF9900"/>
<path d="M69.6846 22.2201C69.5945 22.2201 69.5044 22.2101 69.4163 22.1921C69.3281 22.174 69.2419 22.148 69.1597 22.1119C69.0774 22.0778 68.9971 22.0338 68.9227 21.9837C68.8482 21.9316 68.7777 21.8735 68.715 21.8094C68.6504 21.7432 68.5936 21.6731 68.5446 21.595C68.4937 21.5188 68.4526 21.4387 68.4173 21.3545C68.384 21.2684 68.3566 21.1802 68.3389 21.0921C68.3213 20.9999 68.3115 20.9077 68.3115 20.8176C68.3115 20.7254 68.3213 20.6332 68.3389 20.5431C68.3566 20.4529 68.384 20.3648 68.4173 20.2806C68.4526 20.1965 68.4937 20.1143 68.5446 20.0382C68.5936 19.962 68.6504 19.8899 68.715 19.8258C68.7777 19.7617 68.8482 19.7016 68.9227 19.6515C68.9971 19.6014 69.0774 19.5573 69.1597 19.5212C69.2419 19.4872 69.3281 19.4611 69.4163 19.4431C69.5926 19.405 69.7747 19.405 69.951 19.4431C70.0392 19.4611 70.1253 19.4872 70.2076 19.5212C70.2899 19.5573 70.3702 19.6014 70.4446 19.6515C70.5191 19.7016 70.5896 19.7617 70.6522 19.8258C70.7169 19.8899 70.7737 19.962 70.8246 20.0382C70.8736 20.1143 70.9147 20.1965 70.95 20.2806C70.9833 20.3648 71.0107 20.4529 71.0283 20.5431C71.046 20.6332 71.0538 20.7254 71.0538 20.8176C71.0538 20.9077 71.046 20.9999 71.0283 21.0921C71.0107 21.1802 70.9833 21.2684 70.95 21.3545C70.9147 21.4387 70.8736 21.5188 70.8246 21.595C70.7737 21.6731 70.7169 21.7432 70.6522 21.8094C70.5896 21.8735 70.5191 21.9316 70.4446 21.9837C70.3702 22.0338 70.2899 22.0778 70.2076 22.1119C70.1253 22.148 70.0392 22.174 69.951 22.1921C69.8629 22.2101 69.7728 22.2201 69.6846 22.2201Z" fill="#FF9900"/>
<path d="M69.4836 70.6632H61.9815C61.2234 70.6632 60.6104 70.0361 60.6104 69.2607V43.0195C60.6104 42.2441 61.2234 41.6169 61.9815 41.6169H69.4836C70.2416 41.6169 70.8547 42.2441 70.8547 43.0195V69.2627C70.8547 70.0361 70.2416 70.6632 69.4836 70.6632ZM63.3546 67.8582H68.1144V44.422H63.3546V67.8582Z" fill="#01273C"/>
<path d="M82.8869 70.6632H75.3848C74.6268 70.6632 74.0137 70.0361 74.0137 69.2607V43.0195C74.0137 42.2441 74.6268 41.6169 75.3848 41.6169H82.8869C83.6449 41.6169 84.258 42.2441 84.258 43.0195V69.2627C84.258 70.0361 83.6449 70.6632 82.8869 70.6632ZM76.7559 67.8582H81.5157V44.422H76.7559V67.8582Z" fill="#01273C"/>
<path d="M10.6377 51.7954C9.87969 51.7954 9.2666 51.1682 9.2666 50.3928V13.0156C9.2666 12.2402 9.87969 11.613 10.6377 11.613C11.3958 11.613 12.0089 12.2402 12.0089 13.0156V50.3928C12.0089 51.1682 11.3938 51.7954 10.6377 51.7954Z" fill="#01273C"/>
<path d="M10.6377 9.99371C10.2754 9.99371 9.92279 9.84345 9.66815 9.58298C9.41351 9.3205 9.2666 8.95985 9.2666 8.59119C9.2666 8.22052 9.41351 7.85987 9.66815 7.59941C9.98547 7.27282 10.4595 7.12455 10.9061 7.21471C10.9923 7.23275 11.0785 7.2608 11.1627 7.29486C11.245 7.33092 11.3233 7.373 11.3977 7.42509C11.4741 7.47518 11.5446 7.53329 11.6073 7.59941C11.862 7.85987 12.0089 8.22052 12.0089 8.59119C12.0089 8.95985 11.862 9.3205 11.6073 9.58298C11.5446 9.64709 11.4741 9.7052 11.3977 9.75729C11.3233 9.80738 11.245 9.85146 11.1627 9.88552C11.0785 9.92158 10.9923 9.94763 10.9061 9.96566C10.8179 9.9837 10.7278 9.99371 10.6377 9.99371Z" fill="#01273C"/>
</svg>
