<svg width="85" height="80" viewBox="0 0 85 80" fill="none" xmlns="http://www.w3.org/2000/svg">
<path d="M48.7235 33.2228C48.0453 33.2228 47.4968 32.6751 47.4968 31.9979V21.1068C47.4968 10.8194 39.1145 2.4498 28.8116 2.4498C18.5086 2.4498 10.1264 10.8194 10.1264 21.1068V31.9979C10.1264 32.6751 9.57782 33.2228 8.89961 33.2228C8.22139 33.2228 7.67285 32.6751 7.67285 31.9979V21.1068C7.67285 9.46848 17.1557 0 28.8116 0C40.4675 0 49.9503 9.46848 49.9503 21.1068V31.9979C49.9503 32.6751 49.4017 33.2228 48.7235 33.2228Z" fill="#FF9900"/>
<path d="M52.2348 68.5716C51.5566 68.5716 51.0081 68.0239 51.0081 67.3467V50.3434H23.6918V66.1218H45.2546C45.9328 66.1218 46.4814 66.6695 46.4814 67.3467C46.4814 68.0239 45.9328 68.5716 45.2546 68.5716H22.465C21.7868 68.5716 21.2383 68.0239 21.2383 67.3467V49.1185C21.2383 48.4413 21.7868 47.8936 22.465 47.8936H52.2366C52.9148 47.8936 53.4633 48.4413 53.4633 49.1185V67.3467C53.4616 68.0239 52.9131 68.5716 52.2348 68.5716Z" fill="#FF9900"/>
<path d="M5.38886 57.9691C4.71064 57.9691 4.16211 57.4214 4.16211 56.7442V45.3211C4.16211 44.6439 4.71064 44.0962 5.38886 44.0962C6.06708 44.0962 6.61562 44.6439 6.61562 45.3211V56.7442C6.61562 57.4196 6.06533 57.9691 5.38886 57.9691Z" fill="#01273C"/>
<path d="M5.38886 62.0483C5.30825 62.0483 5.22763 62.0413 5.14877 62.0255C5.06991 62.0098 4.9928 61.9853 4.91919 61.9555C4.84559 61.924 4.77373 61.8873 4.70714 61.8436C4.64054 61.7981 4.57745 61.7473 4.51962 61.6913C4.46354 61.6336 4.41272 61.5706 4.36715 61.5041C4.32334 61.4376 4.28654 61.3658 4.25499 61.2923C4.2252 61.2189 4.20066 61.1419 4.18489 61.0631C4.16912 60.9844 4.16211 60.9039 4.16211 60.8251C4.16211 60.7446 4.16912 60.6642 4.18489 60.5854C4.20066 60.5067 4.2252 60.4297 4.25499 60.3562C4.28654 60.2827 4.32334 60.2109 4.36715 60.1444C4.41272 60.0779 4.46354 60.015 4.51962 59.959C4.57745 59.9012 4.64054 59.8505 4.70714 59.8067C4.77373 59.7612 4.84559 59.7245 4.91919 59.693C4.9928 59.6632 5.06991 59.6387 5.14877 59.623C5.3065 59.5915 5.46948 59.5915 5.6272 59.623C5.70607 59.6387 5.78318 59.6632 5.85678 59.693C5.93039 59.7245 6.00224 59.7612 6.06884 59.8067C6.13543 59.8505 6.19852 59.9012 6.25635 59.959C6.31243 60.015 6.36326 60.0779 6.40707 60.1444C6.45263 60.2109 6.48944 60.2827 6.52098 60.3562C6.55077 60.4297 6.57531 60.5067 6.59108 60.5854C6.60685 60.6642 6.61562 60.7446 6.61562 60.8251C6.61562 61.1471 6.48418 61.4621 6.25635 61.6913C6.19852 61.7473 6.13543 61.7981 6.06884 61.8436C6.00224 61.8873 5.93039 61.924 5.85678 61.9555C5.78318 61.9853 5.70607 62.0098 5.6272 62.0255C5.54834 62.0413 5.46773 62.0483 5.38886 62.0483Z" fill="#01273C"/>
<path d="M52.2366 80H5.38691C4.70869 80 4.16016 79.4523 4.16016 78.7751V65.2032C4.16016 64.526 4.70869 63.9783 5.38691 63.9783C6.06513 63.9783 6.61366 64.526 6.61366 65.2032V77.5502H51.0099V40.3167C51.0099 39.6395 51.5584 39.0918 52.2366 39.0918C52.9148 39.0918 53.4634 39.6395 53.4634 40.3167V78.7751C53.4634 79.4523 52.9148 80 52.2366 80Z" fill="#01273C"/>
<path d="M54.9165 41.5417H2.70762C1.21449 41.5417 0 40.2573 0 38.6789V33.6358C0 32.0575 1.21449 30.7731 2.70762 30.7731H54.9165C56.4096 30.7731 57.6241 32.0575 57.6241 33.6358V38.6789C57.6241 40.2573 56.4096 41.5417 54.9165 41.5417ZM2.70762 33.2229C2.60422 33.2229 2.45351 33.3839 2.45351 33.6358V38.6789C2.45351 38.9309 2.60422 39.0919 2.70762 39.0919H54.9165C55.0199 39.0919 55.1706 38.9309 55.1706 38.6789V33.6358C55.1706 33.3839 55.0199 33.2229 54.9165 33.2229H2.70762Z" fill="#01273C"/>
<path d="M83.7694 39.342H62.7043C62.0261 39.342 61.4775 38.7943 61.4775 38.1171C61.4775 37.4399 62.0261 36.8922 62.7043 36.8922H82.5427V28.8534H79.7404C79.3917 28.8534 79.1077 29.1368 79.1077 29.4868V30.262C79.1077 30.402 79.1743 30.5455 79.2304 30.64C79.5406 31.1684 79.7036 31.7686 79.7036 32.3776C79.7036 33.3575 79.2847 34.2954 78.5522 34.9481C77.8214 35.6026 76.8383 35.9158 75.8568 35.8055C74.2919 35.6288 73.0476 34.4232 72.8285 32.871C72.7146 32.0731 72.8723 31.2892 73.2877 30.6032C73.3332 30.528 73.3893 30.4125 73.3893 30.3005V29.4851C73.3893 29.1351 73.1054 28.8516 72.7567 28.8516H63.931V33.7705C63.931 34.4477 63.3825 34.9954 62.7043 34.9954C62.0261 34.9954 61.4775 34.4477 61.4775 33.7705V27.6285C61.4775 26.9513 62.0261 26.4036 62.7043 26.4036H72.7549C74.4566 26.4036 75.8411 27.786 75.8411 29.4868V30.3022C75.8411 30.843 75.6886 31.3697 75.3889 31.8684C75.3048 32.0066 75.2154 32.2323 75.2575 32.5281C75.3206 32.9673 75.6869 33.3225 76.1285 33.3715C76.4212 33.4047 76.6998 33.3155 76.9154 33.123C77.1309 32.9305 77.2501 32.6663 77.2501 32.3776C77.2501 32.2008 77.2045 32.0329 77.1134 31.8789C76.8137 31.3679 76.6542 30.808 76.6542 30.262V29.4868C76.6542 27.786 78.0387 26.4036 79.7404 26.4036H83.7694C84.4476 26.4036 84.9962 26.9513 84.9962 27.6285V38.1171C84.9962 38.7943 84.4476 39.342 83.7694 39.342Z" fill="#01273C"/>
<path d="M78.582 79.9999H67.8917C66.7701 79.9999 65.8571 79.0882 65.8571 77.9683V74.6226C65.8571 73.5027 66.7701 72.591 67.8917 72.591C68.1143 72.591 68.2965 72.4107 68.2965 72.1868V68.0606C68.2965 67.3834 68.8451 66.8357 69.5233 66.8357C70.2015 66.8357 70.75 67.3834 70.75 68.0606V72.1868C70.75 73.6182 69.6898 74.8063 68.3106 75.0093V77.5501H78.1614V75.0093C76.7839 74.8063 75.7219 73.6182 75.7219 72.1868V53.3933C75.7219 50.7895 77.8442 48.6704 80.4519 48.6704C81.6033 48.6704 82.5409 47.7343 82.5409 46.5846V39.3402H63.931V46.5846C63.931 47.7343 64.8686 48.6704 66.02 48.6704C68.6278 48.6704 70.75 50.7895 70.75 53.3933V60.6885C70.75 61.3656 70.2015 61.9134 69.5233 61.9134C68.8451 61.9134 68.2965 61.3656 68.2965 60.6885V53.3933C68.2965 52.1404 67.2748 51.1202 66.02 51.1202C63.5157 51.1202 61.4775 49.0851 61.4775 46.5846V38.1153C61.4775 37.4381 62.0261 36.8904 62.7043 36.8904H83.7694C84.4476 36.8904 84.9962 37.4381 84.9962 38.1153V46.5846C84.9962 49.0851 82.958 51.1202 80.4537 51.1202C79.1989 51.1202 78.1772 52.1404 78.1772 53.3933V72.1868C78.1772 72.409 78.3577 72.591 78.582 72.591C79.7036 72.591 80.6167 73.5027 80.6167 74.6226V77.9683C80.6167 79.0882 79.7036 79.9999 78.582 79.9999Z" fill="#01273C"/>
<path d="M69.5236 65.5112C69.1994 65.5112 68.884 65.3799 68.6561 65.1525C68.4266 64.925 68.2969 64.61 68.2969 64.2863C68.2969 64.2075 68.3039 64.127 68.3197 64.0466C68.3354 63.9696 68.36 63.8926 68.3898 63.8191C68.4213 63.7438 68.4581 63.6738 68.5037 63.6073C68.5475 63.5391 68.5983 63.4778 68.6561 63.4201C68.94 63.1366 69.3641 63.0054 69.7637 63.0859C69.8408 63.1016 69.9179 63.1244 69.9915 63.1559C70.0669 63.1856 70.137 63.2241 70.2036 63.2679C70.2719 63.3134 70.3333 63.3641 70.3911 63.4201C70.4472 63.4778 70.498 63.5391 70.5436 63.6073C70.5874 63.6738 70.626 63.7438 70.6558 63.8191C70.6873 63.8926 70.7101 63.9696 70.7258 64.0466C70.7416 64.127 70.7504 64.2075 70.7504 64.2863C70.7504 64.61 70.6189 64.925 70.3911 65.1525C70.3333 65.2085 70.2719 65.2609 70.2036 65.3047C70.137 65.3484 70.0669 65.3869 69.9915 65.4184C69.9179 65.4482 69.8408 65.4727 69.7637 65.4884C69.6831 65.5042 69.6025 65.5112 69.5236 65.5112Z" fill="#01273C"/>
<path d="M76.2407 35.8284C76.1128 35.8284 75.9848 35.8214 75.8569 35.8074C74.2919 35.6307 73.0477 34.425 72.8286 32.8729C72.7147 32.075 72.8724 31.291 73.2877 30.6051C73.3333 30.5298 73.3894 30.4143 73.3894 30.3023V29.4869C73.3894 29.1369 73.1055 28.8535 72.7567 28.8535H61.05C60.3718 28.8535 59.8232 28.3058 59.8232 27.6286V24.3581C59.8232 22.771 60.4927 21.2433 61.6581 20.1654C62.8183 19.0928 64.3868 18.5468 65.9605 18.6693C65.9693 18.6693 65.978 18.671 65.9886 18.671L66.0902 18.6798C67.2994 18.7848 69.0186 19.266 70.8412 19.7752C72.7813 20.3177 74.9807 20.9319 76.1531 20.9319C76.982 20.9319 78.6276 20.7499 80.7867 20.4209C81.8435 20.2599 82.9125 20.5661 83.7239 21.2626C84.5353 21.959 84.9997 22.9704 84.9997 24.0379V27.6286C84.9997 28.3058 84.4512 28.8535 83.773 28.8535H79.744C79.3952 28.8535 79.1113 29.1369 79.1113 29.4869V30.2621C79.1113 30.4021 79.1779 30.5456 79.234 30.6401C79.5442 31.1685 79.7072 31.7687 79.7072 32.3777C79.7072 33.3576 79.2883 34.2955 78.5558 34.9482C77.9161 35.5169 77.0907 35.8284 76.2407 35.8284ZM62.275 26.4037H72.755C74.4567 26.4037 75.8411 27.786 75.8411 29.4869V30.3023C75.8411 30.8431 75.6887 31.3698 75.389 31.8685C75.3049 32.0067 75.2155 32.2324 75.2576 32.5282C75.3206 32.9674 75.6869 33.3226 76.1286 33.3716C76.4212 33.4048 76.6999 33.3156 76.9154 33.1231C77.131 32.9306 77.2502 32.6664 77.2502 32.3777C77.2502 32.2009 77.2046 32.033 77.1135 31.879C76.8138 31.368 76.6543 30.8081 76.6543 30.2621V29.4869C76.6543 27.786 78.0388 26.4037 79.7405 26.4037H82.5427V24.0379C82.5427 23.6791 82.3938 23.3537 82.1204 23.1209C81.8487 22.8882 81.5052 22.7902 81.153 22.8427C78.8099 23.1997 77.1257 23.3817 76.1496 23.3817C74.6407 23.3817 72.3712 22.7482 70.177 22.134C68.5437 21.6773 66.8543 21.2066 65.8641 21.1191L65.8291 21.1156C65.8063 21.1138 65.7835 21.1121 65.759 21.1103C64.8547 21.0421 63.9907 21.3448 63.323 21.9625C62.6465 22.5872 62.275 23.4377 62.275 24.3581V26.4037Z" fill="#FF9900"/>
</svg>
