<svg width="21" height="20" viewBox="0 0 21 20" fill="none" xmlns="http://www.w3.org/2000/svg">
<path d="M10.5046 20C7.83434 20 5.32477 18.96 3.43706 17.0707C0.351326 13.9843 -0.381911 9.30357 1.61361 5.425C1.79424 5.07429 2.22404 4.93643 2.57531 5.11643C2.92658 5.29643 3.06438 5.72714 2.88374 6.07857C1.17309 9.40286 1.80138 13.4143 4.4466 16.0607C6.06444 17.68 8.2156 18.5714 10.5046 18.5714C12.7928 18.5714 14.9447 17.68 16.5625 16.0607C18.1803 14.4414 19.0721 12.2893 19.0721 10C19.0721 7.71 18.1811 5.55786 16.5625 3.93929C14.944 2.32071 12.7935 1.42857 10.5046 1.42857C8.2156 1.42857 6.06444 2.32071 4.4466 3.93929C4.16744 4.21857 3.71622 4.21857 3.43706 3.93929C3.1579 3.66 3.1579 3.20857 3.43706 2.92929C5.32477 1.04071 7.83434 0 10.5046 0C13.1748 0 15.6851 1.04071 17.572 2.92929C19.4605 4.81786 20.5 7.32857 20.5 10C20.5 12.6707 19.4605 15.1821 17.572 17.0707C15.6851 18.96 13.1748 20 10.5046 20Z" fill="#383838"/>
<path d="M14.0736 13.5713C13.9172 13.5713 13.7601 13.5206 13.6281 13.4149L10.0583 10.5577C9.88905 10.422 9.79053 10.217 9.79053 9.99986V4.28557C9.79053 3.89129 10.1104 3.57129 10.5045 3.57129C10.8986 3.57129 11.2184 3.89129 11.2184 4.28557V9.657L14.5205 12.2991C14.8282 12.5463 14.8782 12.9956 14.6319 13.3034C14.4905 13.4791 14.2835 13.5713 14.0736 13.5713Z" fill="#383838"/>
</svg>
