<svg width="28" height="20" viewBox="0 0 28 20" fill="none" xmlns="http://www.w3.org/2000/svg">
<path fill-rule="evenodd" clip-rule="evenodd" d="M6.54988 1.03173L13.9808 6.4808L21.5721 0.844057C22.7318 -0.0765993 24.2188 -0.235713 25.4338 0.378786C26.6691 1.00354 27.5 2.35909 27.5 4.21016V16.0884C27.5 16.7619 27.4157 17.7269 26.9051 18.5402C26.3569 19.4134 25.3954 19.9919 23.918 19.9919H20.9475C20.5552 19.9919 20.237 19.6721 20.237 19.2776V11.0012L14.4074 15.3598C14.1553 15.5484 13.8099 15.5479 13.5581 15.3588L7.76297 11.0052V16.0266C7.76297 16.4211 7.44487 16.7409 7.05244 16.7409C6.66004 16.7409 6.34192 16.4211 6.34192 16.0266V9.57979C6.34192 9.30937 6.49373 9.06222 6.73414 8.94122C6.97456 8.82008 7.26238 8.84579 7.47778 9.00765L13.9845 13.8956L20.5235 9.00665C20.7391 8.84551 21.0265 8.82022 21.2666 8.94151C21.5066 9.06279 21.6581 9.30979 21.6581 9.57979V18.5634H23.918C24.9754 18.5634 25.4497 18.1818 25.7035 17.7776C25.9948 17.3135 26.0789 16.6839 26.0789 16.0884V4.21016C26.0789 2.80693 25.4741 1.99836 24.7952 1.65496C24.0996 1.30313 23.1988 1.36903 22.4459 1.97063C22.4393 1.97587 22.4327 1.981 22.426 1.986L14.4056 7.94137C14.1559 8.1268 13.8154 8.1278 13.5647 7.94394L5.70364 2.17943C4.999 1.6514 3.95675 1.33273 3.15707 1.4546C2.7758 1.51271 2.4871 1.66341 2.28956 1.89841C2.09191 2.13356 1.92105 2.52986 1.92105 3.20133V16.6416C1.92105 17.5862 2.2568 18.0352 2.57792 18.2669C2.93814 18.5269 3.39278 18.5926 3.68883 18.5661C3.7098 18.5642 3.73086 18.5634 3.75192 18.5634H5.63139C6.02382 18.5634 6.34192 18.8831 6.34192 19.2776C6.34192 19.6721 6.02382 19.9919 5.63139 19.9919H3.78103C3.23074 20.0339 2.43365 19.9215 1.74919 19.4275C1.01138 18.8949 0.5 17.9879 0.5 16.6416V3.20133C0.5 2.2836 0.737586 1.5314 1.20416 0.976358C1.67085 0.421172 2.30218 0.140001 2.94407 0.0421723C4.18935 -0.147613 5.60426 0.324401 6.54988 1.03173Z" fill="#383838"/>
</svg>
