<svg width="155" height="117" viewBox="0 0 155 117" fill="none" xmlns="http://www.w3.org/2000/svg">
<path d="M14.94 110.78C14.78 110.913 14.48 111.093 14.04 111.32C13.6133 111.547 13.0867 111.747 12.46 111.92C11.8333 112.093 11.14 112.173 10.38 112.16C9.22 112.133 8.18 111.927 7.26 111.54C6.35333 111.14 5.58 110.6 4.94 109.92C4.31333 109.24 3.83333 108.46 3.5 107.58C3.16667 106.7 3 105.76 3 104.76C3 103.64 3.16667 102.613 3.5 101.68C3.84667 100.747 4.33333 99.94 4.96 99.26C5.6 98.58 6.36 98.0533 7.24 97.68C8.12 97.3067 9.09333 97.12 10.16 97.12C11.1467 97.12 12.02 97.2533 12.78 97.52C13.54 97.7867 14.16 98.0733 14.64 98.38L13.5 101.12C13.1667 100.867 12.72 100.607 12.16 100.34C11.6133 100.06 10.98 99.92 10.26 99.92C9.7 99.92 9.16 100.04 8.64 100.28C8.13333 100.507 7.68 100.833 7.28 101.26C6.89333 101.687 6.58667 102.187 6.36 102.76C6.13333 103.32 6.02 103.933 6.02 104.6C6.02 105.307 6.12 105.953 6.32 106.54C6.53333 107.127 6.83333 107.633 7.22 108.06C7.60667 108.473 8.06667 108.793 8.6 109.02C9.14667 109.247 9.76 109.36 10.44 109.36C11.2267 109.36 11.9 109.233 12.46 108.98C13.02 108.727 13.4467 108.46 13.74 108.18L14.94 110.78ZM31.0253 112.6L19.8653 102.52L20.7253 103L20.7853 112H17.8453V96.7H17.9653L28.8853 106.74L28.2453 106.46L28.1853 97.28H31.1053V112.6H31.0253ZM52.2 110.92C51.96 111.08 51.6333 111.26 51.22 111.46C50.8067 111.66 50.32 111.827 49.76 111.96C49.2133 112.093 48.6133 112.16 47.96 112.16C46.84 112.147 45.8267 111.947 44.92 111.56C44.0267 111.173 43.2667 110.647 42.64 109.98C42.0133 109.313 41.5267 108.547 41.18 107.68C40.8467 106.8 40.68 105.867 40.68 104.88C40.68 103.8 40.8533 102.807 41.2 101.9C41.56 100.98 42.06 100.187 42.7 99.52C43.34 98.84 44.0933 98.3133 44.96 97.94C45.84 97.5667 46.8 97.38 47.84 97.38C48.7067 97.38 49.4933 97.5 50.2 97.74C50.9067 97.9667 51.5133 98.24 52.02 98.56L51.24 100.36C50.84 100.093 50.3533 99.84 49.78 99.6C49.22 99.36 48.5933 99.24 47.9 99.24C47.1933 99.24 46.5267 99.38 45.9 99.66C45.2733 99.94 44.72 100.333 44.24 100.84C43.76 101.347 43.38 101.94 43.1 102.62C42.8333 103.287 42.7 104.007 42.7 104.78C42.7 105.567 42.82 106.3 43.06 106.98C43.3133 107.647 43.6667 108.227 44.12 108.72C44.5867 109.213 45.1467 109.6 45.8 109.88C46.4533 110.16 47.1867 110.3 48 110.3C48.7333 110.3 49.3867 110.187 49.96 109.96C50.5333 109.733 51.0067 109.48 51.38 109.2L52.2 110.92ZM54.2867 107.78C54.2867 106.953 54.4801 106.207 54.8667 105.54C55.2667 104.873 55.8134 104.347 56.5067 103.96C57.2001 103.573 57.9867 103.38 58.8667 103.38C59.7734 103.38 60.5667 103.573 61.2467 103.96C61.9267 104.347 62.4534 104.873 62.8267 105.54C63.2001 106.207 63.3867 106.953 63.3867 107.78C63.3867 108.607 63.2001 109.36 62.8267 110.04C62.4534 110.707 61.9201 111.233 61.2267 111.62C60.5467 112.007 59.7534 112.2 58.8467 112.2C57.9667 112.2 57.1801 112.02 56.4867 111.66C55.8067 111.287 55.2667 110.773 54.8667 110.12C54.4801 109.453 54.2867 108.673 54.2867 107.78ZM56.1467 107.8C56.1467 108.333 56.2667 108.82 56.5067 109.26C56.7467 109.687 57.0667 110.027 57.4667 110.28C57.8801 110.533 58.3334 110.66 58.8267 110.66C59.3467 110.66 59.8067 110.533 60.2067 110.28C60.6201 110.027 60.9401 109.687 61.1667 109.26C61.3934 108.82 61.5067 108.333 61.5067 107.8C61.5067 107.267 61.3934 106.787 61.1667 106.36C60.9401 105.92 60.6201 105.573 60.2067 105.32C59.8067 105.053 59.3467 104.92 58.8267 104.92C58.3201 104.92 57.8601 105.053 57.4467 105.32C57.0467 105.587 56.7267 105.94 56.4867 106.38C56.2601 106.807 56.1467 107.28 56.1467 107.8ZM67.5652 103.72L67.7252 105.74L67.6452 105.42C67.9118 104.807 68.3452 104.32 68.9452 103.96C69.5452 103.587 70.2385 103.4 71.0252 103.4C71.8118 103.4 72.4518 103.633 72.9452 104.1C73.4518 104.553 73.7118 105.147 73.7252 105.88V112H71.8452V106.54C71.8318 106.087 71.6985 105.72 71.4452 105.44C71.2052 105.147 70.8252 105 70.3052 105C69.8252 105 69.3918 105.133 69.0052 105.4C68.6185 105.667 68.3118 106.033 68.0852 106.5C67.8718 106.967 67.7652 107.507 67.7652 108.12V112H65.9052V103.72H67.5652ZM79.2798 112.16C78.6932 112.16 78.1198 112.06 77.5598 111.86C77.0132 111.647 76.5598 111.333 76.1998 110.92L76.9798 109.84C77.3265 110.173 77.6798 110.427 78.0398 110.6C78.4132 110.76 78.7798 110.84 79.1398 110.84C79.4065 110.84 79.6532 110.807 79.8798 110.74C80.1065 110.673 80.2865 110.567 80.4198 110.42C80.5665 110.26 80.6398 110.047 80.6398 109.78C80.6398 109.487 80.5398 109.253 80.3398 109.08C80.1532 108.907 79.9065 108.767 79.5998 108.66C79.3065 108.553 78.9932 108.453 78.6598 108.36C77.9798 108.133 77.4598 107.82 77.0998 107.42C76.7398 107.02 76.5598 106.533 76.5598 105.96C76.5598 105.52 76.6665 105.113 76.8798 104.74C77.1065 104.353 77.4332 104.04 77.8598 103.8C78.2998 103.56 78.8398 103.44 79.4798 103.44C80.0532 103.44 80.5665 103.513 81.0198 103.66C81.4732 103.793 81.8998 104.02 82.2998 104.34L81.5598 105.5C81.3198 105.247 81.0332 105.06 80.6998 104.94C80.3665 104.82 80.0665 104.753 79.7998 104.74C79.5732 104.727 79.3532 104.76 79.1398 104.84C78.9398 104.92 78.7732 105.033 78.6398 105.18C78.5065 105.327 78.4398 105.5 78.4398 105.7C78.4398 105.98 78.5332 106.207 78.7198 106.38C78.9065 106.553 79.1465 106.693 79.4398 106.8C79.7465 106.893 80.0465 106.993 80.3398 107.1C80.7532 107.22 81.1198 107.38 81.4398 107.58C81.7598 107.78 82.0132 108.027 82.1998 108.32C82.3998 108.613 82.4998 108.98 82.4998 109.42C82.4998 109.913 82.3798 110.373 82.1398 110.8C81.9132 111.213 81.5598 111.547 81.0798 111.8C80.6132 112.04 80.0132 112.16 79.2798 112.16ZM85.9044 100.08H87.7644V103.76H90.0444V105.22H87.7644V112H85.9044V105.22H84.3844V103.76H85.9044V100.08ZM93.9519 103.72L94.1319 106.12L94.0319 105.8C94.2452 105.293 94.5519 104.867 94.9519 104.52C95.3652 104.16 95.7919 103.887 96.2319 103.7C96.6852 103.5 97.0785 103.4 97.4119 103.4L97.3119 105.24C96.6852 105.2 96.1319 105.32 95.6519 105.6C95.1852 105.88 94.8119 106.253 94.5319 106.72C94.2652 107.187 94.1319 107.687 94.1319 108.22V112H92.2919V103.72H93.9519ZM102.431 112.32C101.685 112.32 101.065 112.093 100.571 111.64C100.091 111.173 99.8381 110.573 99.8114 109.84V103.72H101.671V109.18C101.698 109.633 101.825 110 102.051 110.28C102.291 110.56 102.665 110.707 103.171 110.72C103.638 110.72 104.051 110.587 104.411 110.32C104.785 110.04 105.085 109.667 105.311 109.2C105.538 108.72 105.651 108.18 105.651 107.58V103.72H107.511V112H105.811L105.651 109.96L105.751 110.32C105.591 110.707 105.345 111.053 105.011 111.36C104.691 111.653 104.311 111.887 103.871 112.06C103.431 112.233 102.951 112.32 102.431 112.32ZM117.449 111.24C117.076 111.533 116.629 111.767 116.109 111.94C115.589 112.113 115.069 112.2 114.549 112.2C113.643 112.2 112.849 112.02 112.169 111.66C111.489 111.3 110.956 110.8 110.569 110.16C110.196 109.507 110.009 108.74 110.009 107.86C110.009 106.98 110.209 106.213 110.609 105.56C111.023 104.907 111.556 104.407 112.209 104.06C112.876 103.7 113.589 103.52 114.349 103.52C115.016 103.52 115.609 103.613 116.129 103.8C116.663 103.987 117.116 104.24 117.489 104.56L116.569 105.76C116.329 105.573 116.036 105.407 115.689 105.26C115.343 105.113 114.949 105.04 114.509 105.04C114.029 105.04 113.583 105.167 113.169 105.42C112.769 105.66 112.449 105.993 112.209 106.42C111.983 106.847 111.869 107.327 111.869 107.86C111.869 108.367 111.989 108.84 112.229 109.28C112.469 109.707 112.803 110.047 113.229 110.3C113.656 110.54 114.143 110.66 114.689 110.66C115.049 110.66 115.376 110.607 115.669 110.5C115.976 110.393 116.249 110.247 116.489 110.06L117.449 111.24ZM120.65 100.08H122.51V103.76H124.79V105.22H122.51V112H120.65V105.22H119.13V103.76H120.65V100.08ZM127.038 103.72H128.898V112H127.038V103.72ZM126.898 100.72C126.898 100.427 127.011 100.18 127.238 99.98C127.478 99.78 127.738 99.68 128.018 99.68C128.298 99.68 128.545 99.78 128.758 99.98C128.985 100.18 129.098 100.427 129.098 100.72C129.098 101.027 128.985 101.28 128.758 101.48C128.545 101.667 128.298 101.76 128.018 101.76C127.738 101.76 127.478 101.66 127.238 101.46C127.011 101.26 126.898 101.013 126.898 100.72ZM131.396 107.78C131.396 106.953 131.589 106.207 131.976 105.54C132.376 104.873 132.923 104.347 133.616 103.96C134.309 103.573 135.096 103.38 135.976 103.38C136.883 103.38 137.676 103.573 138.356 103.96C139.036 104.347 139.563 104.873 139.936 105.54C140.309 106.207 140.496 106.953 140.496 107.78C140.496 108.607 140.309 109.36 139.936 110.04C139.563 110.707 139.029 111.233 138.336 111.62C137.656 112.007 136.863 112.2 135.956 112.2C135.076 112.2 134.289 112.02 133.596 111.66C132.916 111.287 132.376 110.773 131.976 110.12C131.589 109.453 131.396 108.673 131.396 107.78ZM133.256 107.8C133.256 108.333 133.376 108.82 133.616 109.26C133.856 109.687 134.176 110.027 134.576 110.28C134.989 110.533 135.443 110.66 135.936 110.66C136.456 110.66 136.916 110.533 137.316 110.28C137.729 110.027 138.049 109.687 138.276 109.26C138.503 108.82 138.616 108.333 138.616 107.8C138.616 107.267 138.503 106.787 138.276 106.36C138.049 105.92 137.729 105.573 137.316 105.32C136.916 105.053 136.456 104.92 135.936 104.92C135.429 104.92 134.969 105.053 134.556 105.32C134.156 105.587 133.836 105.94 133.596 106.38C133.369 106.807 133.256 107.28 133.256 107.8ZM144.675 103.72L144.835 105.74L144.755 105.42C145.021 104.807 145.455 104.32 146.055 103.96C146.655 103.587 147.348 103.4 148.135 103.4C148.921 103.4 149.561 103.633 150.055 104.1C150.561 104.553 150.821 105.147 150.835 105.88V112H148.955V106.54C148.941 106.087 148.808 105.72 148.555 105.44C148.315 105.147 147.935 105 147.415 105C146.935 105 146.501 105.133 146.115 105.4C145.728 105.667 145.421 106.033 145.195 106.5C144.981 106.967 144.875 107.507 144.875 108.12V112H143.015V103.72H144.675Z" fill="#01273C"/>
<path d="M25.0622 54.1739L0 79.3261H9.6393L26.6045 62.3L40.4851 76.2304L62.4627 54.1739H25.0622Z" fill="#01273C"/>
<path d="M129.167 54.1739L154.229 79.3261H144.59L127.624 62.3L113.744 76.2304L91.7662 54.1739H129.167Z" fill="#01273C"/>
<path d="M37.7861 83.9696L0 88.613H43.1841L76.7289 58.4304L112.587 88.613H155L116.443 83.9696L76.7289 44.887L37.7861 83.9696Z" fill="#01273C"/>
<path d="M58.5467 84.7323C56.5706 84.7323 56.5707 89 58.5467 89H95.2682C96.4208 89 97.0794 85.2247 95.2682 84.7323H92.9628C92.6334 77.3458 89.6694 72.7497 82.7532 69.4669V81.1211C81.871 81.5839 81.4598 81.494 80.7772 81.1211V67.0047C77.6088 66.3861 75.8028 66.4285 72.5437 67.0047V81.1211C71.8363 81.6312 71.4397 81.5756 70.7323 81.1211V69.4669C63.3107 73.185 60.6875 78.1665 60.3581 84.7323H58.5467Z" fill="#FF9900"/>
<path d="M23.1343 71.2H26.2189V74.2957H23.1343V71.2Z" fill="#FF9900"/>
<path d="M123.383 71.2H126.468V74.2957H123.383V71.2Z" fill="#FF9900"/>
<path d="M26.99 71.2H30.0746V74.2957H26.99V71.2Z" fill="#FF9900"/>
<path d="M127.239 71.2H130.323V74.2957H127.239V71.2Z" fill="#FF9900"/>
<path d="M23.1343 75.0696H26.2189V78.1652H23.1343V75.0696Z" fill="#FF9900"/>
<path d="M123.383 75.0696H126.468V78.1652H123.383V75.0696Z" fill="#FF9900"/>
<path d="M26.99 75.0696H30.0746V78.1652H26.99V75.0696Z" fill="#FF9900"/>
<path d="M127.239 75.0696H130.323V78.1652H127.239V75.0696Z" fill="#FF9900"/>
<path d="M114.9 29.5696V8.51304L116.443 7.73913V29.1826L118.371 28.5774V6.96522L119.527 6.1913V28.4087L121.07 28.7957V33.8261L117.985 35.3739V38.4696L117.929 38.4944C116.28 39.218 115.29 39.6522 115.672 41.5652C116.134 42.3054 116.482 42.5384 117.214 42.7261C118.394 42.7908 118.961 42.3247 119.913 41.1783V42.7261C118.371 44.2739 116.769 45.0605 114.9 42.3391C114.193 40.2129 114.304 39.1296 116.828 37.6957V33.4391L116.057 35.7609H113.744L113.358 30.3435L114.9 29.5696Z" fill="#01273C"/>
<path d="M40.0995 31.7304L33.9303 34.8261V46.4348L42.0274 47.5956L48.5821 44.5V40.6304L124.54 4.25652V2.32174L121.455 0L43.1841 37.9217L48.5821 33.6652L40.0995 31.7304Z" fill="#01273C"/>
<path d="M51.6667 27.8609L58.607 23.9913V55.7217H51.6667V27.8609Z" fill="#01273C"/>
<path d="M76.529 85.573C76.473 85.6197 76.368 85.6827 76.214 85.762C76.0647 85.8413 75.8803 85.9113 75.661 85.972C75.4417 86.0327 75.199 86.0607 74.933 86.056C74.527 86.0467 74.163 85.9743 73.841 85.839C73.5237 85.699 73.253 85.51 73.029 85.272C72.8097 85.034 72.6417 84.761 72.525 84.453C72.4083 84.145 72.35 83.816 72.35 83.466C72.35 83.074 72.4083 82.7147 72.525 82.388C72.6463 82.0613 72.8167 81.779 73.036 81.541C73.26 81.303 73.526 81.1187 73.834 80.988C74.142 80.8573 74.4827 80.792 74.856 80.792C75.2013 80.792 75.507 80.8387 75.773 80.932C76.039 81.0253 76.256 81.1257 76.424 81.233L76.025 82.192C75.9083 82.1033 75.752 82.0123 75.556 81.919C75.3647 81.821 75.143 81.772 74.891 81.772C74.695 81.772 74.506 81.814 74.324 81.898C74.1467 81.9773 73.988 82.0917 73.848 82.241C73.7127 82.3903 73.6053 82.5653 73.526 82.766C73.4467 82.962 73.407 83.1767 73.407 83.41C73.407 83.6573 73.442 83.8837 73.512 84.089C73.5867 84.2943 73.6917 84.4717 73.827 84.621C73.9623 84.7657 74.1233 84.8777 74.31 84.957C74.5013 85.0363 74.716 85.076 74.954 85.076C75.2293 85.076 75.465 85.0317 75.661 84.943C75.857 84.8543 76.0063 84.761 76.109 84.663L76.529 85.573Z" fill="#01273C"/>
<path d="M80.278 88.21L76.372 84.682L76.673 84.85L76.694 88H75.665V82.645H75.707L79.529 86.159L79.305 86.061L79.284 82.848H80.306V88.21H80.278Z" fill="#01273C"/>
</svg>
