<svg width="21" height="20" viewBox="0 0 21 20" fill="none" xmlns="http://www.w3.org/2000/svg">
<path d="M9.51862 11.7167C9.33576 11.7167 9.1529 11.6466 9.01362 11.5072L6.03434 8.52483C5.90006 8.39038 5.82506 8.20872 5.82506 8.01919C5.82506 7.82967 5.90006 7.6473 6.03434 7.51356L7.77291 5.77351C8.31576 5.22997 8.31576 4.34528 7.77291 3.80174L5.7872 1.81352C5.26077 1.28714 4.34363 1.28643 3.81721 1.81352C3.78578 1.84499 3.75078 1.87359 3.71363 1.89934C3.63149 1.95656 1.63793 3.38407 1.96507 6.33207C2.00864 6.72471 1.7265 7.07801 1.33436 7.12164C0.945786 7.16669 0.589358 6.88276 0.545787 6.49013C0.150074 2.92993 2.43792 1.064 2.85078 0.758618C3.92006 -0.26839 5.74434 -0.251226 6.79648 0.801529L8.78219 2.78975C9.88219 3.89114 9.88219 5.68268 8.78219 6.78407L7.55005 8.01919L10.0236 10.4959C10.3029 10.7755 10.3029 11.2275 10.0236 11.5072C9.88433 11.6473 9.70147 11.7167 9.51862 11.7167Z" fill="#383838"/>
<path d="M6.04269 15.1969C5.85984 15.1969 5.67698 15.1268 5.5377 14.9873C3.7827 13.2301 2.46913 11.5151 1.63271 9.88949C1.45199 9.53833 1.58985 9.10707 1.94056 8.92613C2.29271 8.74519 2.72199 8.88393 2.9027 9.23438C3.67127 10.7284 4.89698 12.324 6.54769 13.9761C6.82698 14.2557 6.82698 14.7077 6.54769 14.9873C6.40769 15.1275 6.22555 15.1969 6.04269 15.1969Z" fill="#383838"/>
<path d="M14.7801 20.0002C11.968 20.0002 8.85227 18.3059 5.50585 14.9546C5.22657 14.6749 5.22657 14.2229 5.50585 13.9433C5.78514 13.6636 6.23656 13.6636 6.51585 13.9433C9.75798 17.1902 12.7858 18.7794 15.2901 18.5462C17.4972 18.3374 18.5672 16.7976 18.578 16.7811C18.603 16.744 18.6315 16.7089 18.6637 16.6774C18.9265 16.415 19.0715 16.0638 19.0715 15.6919C19.0715 15.32 18.9265 14.9696 18.6637 14.7064L16.678 12.7174C16.4151 12.4543 16.0651 12.3098 15.6922 12.3098C15.3201 12.3098 14.9708 12.4543 14.7087 12.7174L12.9694 14.4575C12.6901 14.7371 12.2387 14.7371 11.9594 14.4575L8.98155 11.4759C8.70227 11.1962 8.70227 10.7442 8.98155 10.4646C9.26084 10.185 9.71227 10.185 9.99155 10.4646L12.4644 12.9406L13.698 11.7062C14.2301 11.1726 14.938 10.8787 15.6922 10.8787C16.4465 10.8787 17.1551 11.1726 17.688 11.7055L19.6737 13.6951C20.2065 14.2279 20.5001 14.9374 20.5001 15.6919C20.5001 16.4257 20.2222 17.1173 19.7165 17.6451C19.4565 17.997 18.0544 19.7213 15.4244 19.9702C15.2122 19.9909 14.9965 20.0002 14.7801 20.0002Z" fill="#383838"/>
</svg>
